<svg width="233" height="29" viewBox="0 0 233 29" fill="none" xmlns="http://www.w3.org/2000/svg">
<path d="M233 11.8116C231.664 12.6296 230.332 13.4507 228.99 14.2642C228.05 14.8346 227.096 15.3925 226.15 15.9594C225.117 16.5792 224.113 17.2228 223.121 17.8759C222.032 18.5929 220.983 19.3396 219.929 20.0837C218.923 20.7945 217.896 21.4897 216.848 22.1694C216.008 22.7156 215.077 23.1854 214.077 23.5683C213.744 23.6955 213.397 23.8044 213.041 23.894C212.328 24.0734 211.573 24.1538 210.818 24.1309C210.408 24.1216 210.002 24.0731 209.61 23.9867C208.847 23.8153 208.238 23.4936 207.789 23.016C207.532 22.7421 207.316 22.4487 207.147 22.141C206.877 21.6469 206.676 21.1343 206.548 20.6111C206.45 20.2158 206.387 19.8181 206.332 19.4186C206.223 18.629 206.252 17.8393 206.28 17.0488C206.365 16.6041 206.348 16.154 206.425 15.7083C206.49 15.3341 206.501 14.9548 206.567 14.5808C206.645 14.147 206.657 13.7103 206.708 13.2756C206.743 12.9825 206.727 12.6857 206.717 12.3902C206.71 12.2019 206.674 12.014 206.649 11.8262C206.644 11.803 206.636 11.7801 206.626 11.7576C206.613 11.7171 206.522 11.682 206.467 11.7013C206.38 11.7321 206.287 11.7596 206.211 11.8023C205.579 12.1585 204.94 12.5106 204.363 12.914C203.716 13.3666 203.077 13.8234 202.471 14.3053C201.512 15.0681 200.628 15.8728 199.795 16.707C198.663 17.8372 197.639 19.0214 196.731 20.2516C196.112 21.0851 195.564 21.9448 195.089 22.826C195.031 22.936 194.968 23.0452 194.904 23.1536C194.872 23.2081 194.824 23.2572 194.763 23.2976C194.703 23.3381 194.632 23.369 194.554 23.3884C194.088 23.5154 193.622 23.5019 193.161 23.3753C193.115 23.3622 193.071 23.3451 193.031 23.3245C192.99 23.3054 192.954 23.2801 192.927 23.2504C192.9 23.2206 192.882 23.1871 192.874 23.152C192.861 23.0937 192.856 23.0348 192.858 22.9758C192.87 22.7987 192.879 22.6216 192.907 22.4462C192.949 22.1766 193.009 21.9085 193.057 21.6396C193.203 20.8321 193.398 20.0306 193.628 19.2336C193.762 18.7718 193.905 18.3112 194.041 17.8497C194.06 17.7804 194.072 17.7102 194.077 17.6397C194.075 17.6285 194.07 17.6178 194.063 17.6079C194.055 17.5981 194.045 17.5895 194.033 17.5825C194.005 17.5648 193.968 17.5715 193.945 17.5942C193.879 17.6609 193.81 17.7266 193.749 17.7962C193.242 18.3756 192.747 18.9598 192.231 19.535C191.502 20.3495 190.72 21.1361 189.856 21.8795C189.385 22.2886 188.875 22.6738 188.331 23.0326C187.955 23.2796 187.55 23.5023 187.121 23.6985C186.572 23.9476 185.978 24.1155 185.334 24.1688C184.327 24.252 183.408 24.0953 182.642 23.5924C182.312 23.3762 182.057 23.1155 181.84 22.8352C181.648 22.5873 181.504 22.3234 181.375 22.056C181.341 21.9903 181.301 21.9259 181.258 21.863C181.241 21.8374 181.159 21.8257 181.127 21.8427C181.073 21.8688 181.021 21.8973 180.971 21.9278C180.637 22.154 180.302 22.3801 179.971 22.6089C179.509 22.9276 179.056 23.2522 178.59 23.5674C178.077 23.9148 177.574 24.2717 177.012 24.5803C176.687 24.7601 176.349 24.9268 175.998 25.0795C175.616 25.2447 175.211 25.3696 174.769 25.4269C174.293 25.4887 173.821 25.4811 173.358 25.3835C172.899 25.287 172.543 25.0853 172.285 24.7962C172.088 24.5775 171.939 24.3387 171.842 24.0879C171.729 23.792 171.661 23.4902 171.609 23.1847C171.52 22.6668 171.531 22.1481 171.533 21.6291C171.533 21.4166 171.536 21.2041 171.582 20.9934C171.594 20.9348 171.6 20.8756 171.6 20.8163C171.607 20.4143 171.681 20.0161 171.738 19.6175C171.796 19.2189 171.877 18.8206 171.962 18.4254C172.108 17.7493 172.264 17.0744 172.417 16.3992C172.525 15.9211 172.638 15.4451 172.743 14.9676C172.825 14.5957 172.902 14.2215 172.977 13.8481C172.986 13.7893 172.989 13.7301 172.985 13.671C172.987 13.6476 172.981 13.6242 172.969 13.6024C172.957 13.5806 172.939 13.5609 172.915 13.5447C172.884 13.524 172.789 13.5355 172.733 13.5706C172.547 13.6864 172.358 13.7994 172.18 13.9217C171.602 14.3233 171.056 14.7483 170.544 15.1946C168.903 16.614 167.474 18.138 166.223 19.7494C165.343 20.8826 164.55 22.05 163.848 23.246C163.523 23.8006 163.231 24.3645 162.952 24.9316C162.867 25.0978 162.798 25.268 162.745 25.4409C162.565 26.0649 162.339 26.6805 162.13 27.3003C162.021 27.6211 161.919 27.9432 161.81 28.2641C161.775 28.3672 161.736 28.4697 161.689 28.5703C161.605 28.7514 161.427 28.869 161.177 28.9244C160.726 29.0247 160.272 29.0275 159.823 28.9191C159.745 28.8999 159.671 28.8736 159.603 28.8408C159.504 28.7939 159.427 28.7286 159.427 28.6388C159.427 28.4971 159.425 28.3555 159.451 28.2154C159.538 27.7479 159.625 27.2801 159.735 26.8151C159.864 26.2686 160.005 25.7237 160.16 25.1804C160.47 24.0825 160.787 22.9855 161.11 21.8892C161.384 20.9543 161.672 20.0214 161.945 19.0864C162.234 18.0935 162.528 17.1015 162.858 16.115C162.889 16.0237 162.91 15.9305 162.929 15.8374C162.933 15.8181 162.912 15.7935 162.894 15.7752C162.876 15.757 162.79 15.7653 162.761 15.7865C162.738 15.8034 162.713 15.819 162.692 15.8368C162.639 15.8816 162.585 15.9266 162.535 15.9728C161.743 16.6967 160.918 17.4005 160.04 18.07C159.037 18.8346 157.985 19.5626 156.8 20.1833C156.216 20.4892 155.609 20.7687 154.955 20.9934C154.421 21.1762 153.848 21.2936 153.26 21.3408C152.738 21.3864 152.208 21.3614 151.698 21.2672C151.54 21.2364 151.385 21.1978 151.234 21.1517C150.454 20.9192 150.023 20.488 149.878 19.8994C149.773 19.4779 149.77 19.0574 149.846 18.631C149.925 18.1862 150.052 17.7466 150.227 17.3162C150.381 16.931 150.544 16.5475 150.704 16.1632C150.727 16.1071 150.754 16.0515 150.725 15.9914C150.71 15.9624 150.686 15.95 150.649 15.964C150.604 15.9774 150.563 15.9963 150.528 16.0198C150.44 16.0906 150.357 16.163 150.276 16.237C148.865 17.5272 147.634 18.9138 146.599 20.377C146.353 20.7237 146.093 21.0651 145.833 21.4069C145.747 21.5209 145.651 21.6309 145.546 21.7364C145.251 22.0321 144.854 22.2016 144.344 22.2145C144.098 22.2228 143.852 22.2215 143.607 22.2106C143.099 22.1839 142.706 22.0079 142.429 21.7024C142.342 21.6027 142.265 21.4982 142.2 21.3899C141.968 21.0117 141.802 20.6143 141.706 20.2068C141.547 19.5673 141.488 18.9171 141.528 18.2681C141.535 18.163 141.555 18.0569 141.511 17.9529C141.506 17.9427 141.493 17.9273 141.482 17.9264C141.453 17.9237 141.409 17.9189 141.394 17.9305C141.314 17.989 141.24 18.0514 141.172 18.1171C140.779 18.5094 140.387 18.9025 139.996 19.2964C139.66 19.6315 139.298 19.9523 138.911 20.2574C138.814 20.3375 138.707 20.4112 138.591 20.4776C138.313 20.6329 137.998 20.731 137.641 20.7333C137.412 20.7347 137.179 20.7389 136.954 20.7131C136.427 20.6527 136.158 20.5172 136.111 20.0607C136.067 19.6458 136.124 19.235 136.23 18.8281C136.414 18.1323 136.672 17.4478 137.002 16.7807C137.056 16.6698 137.127 16.562 137.13 16.4417C137.13 16.4265 137.095 16.4086 137.073 16.3964C137.065 16.3942 137.057 16.3933 137.049 16.3939C137.041 16.3944 137.034 16.3964 137.027 16.3996C136.955 16.4471 136.877 16.491 136.818 16.5457C136.516 16.8251 136.213 17.1044 135.921 17.3893C134.341 18.9317 132.959 20.5615 131.737 22.2634C131.021 23.26 130.379 24.2807 129.767 25.3117C129.458 25.8326 129.158 26.3564 128.857 26.8795C128.631 27.2721 128.377 27.6551 128.109 28.0337C127.986 28.2009 127.844 28.3599 127.682 28.5088C127.42 28.7567 127.06 28.8887 126.64 28.9338C126.348 28.9662 126.05 28.9675 125.757 28.9377C125.281 28.8887 124.9 28.711 124.585 28.4582C124.297 28.228 124.081 27.9624 123.906 27.6817C123.672 27.3044 123.479 26.9148 123.327 26.5163C123.088 25.9026 122.914 25.2767 122.807 24.6441C122.755 24.328 122.688 24.0126 122.653 23.6954C122.618 23.3783 122.615 23.0588 122.597 22.7405C122.589 22.611 122.572 22.4817 122.566 22.3521C122.558 22.175 122.527 21.9962 122.556 21.8223C122.607 21.5161 122.592 21.2094 122.611 20.9033C122.63 20.5971 122.653 20.2909 122.686 19.9849C122.727 19.6203 122.78 19.2566 122.826 18.8925C122.857 18.646 122.9 18.3999 122.949 18.1546C123.102 17.384 123.269 16.614 123.469 15.8498C123.475 15.8267 123.486 15.8012 123.478 15.78C123.468 15.7478 123.447 15.7179 123.418 15.6929C123.405 15.6831 123.35 15.6897 123.327 15.7016C123.248 15.7431 123.171 15.7876 123.099 15.8349C122.573 16.174 122.018 16.4867 121.459 16.7963C120.406 17.3794 119.329 17.9384 118.245 18.4913C116.332 19.4673 114.391 20.4133 112.421 21.3293C110.797 22.0877 109.154 22.8221 107.48 23.5205C106.246 24.0353 104.996 24.5277 103.696 24.9548C103.25 25.1035 102.793 25.2348 102.327 25.3481C102.047 25.4137 101.761 25.4644 101.47 25.4999C101.309 25.5205 101.143 25.5177 100.983 25.4919C100.423 25.4055 99.9993 25.1803 99.6913 24.8383C99.5206 24.6492 99.4017 24.442 99.2908 24.2322C99.0798 23.8337 98.9464 23.4199 98.8261 23.0041C98.6916 22.5418 98.6079 22.0734 98.5437 21.604C98.5051 21.3226 98.4977 21.0373 98.4945 20.755C98.4909 20.3301 98.5071 19.9051 98.5086 19.4801C98.51 19.1013 98.5824 18.7268 98.6456 18.3524C98.7354 17.8138 98.8623 17.2784 99.0192 16.7476C99.1762 16.2167 99.3449 15.6879 99.5452 15.1645C99.5843 15.0623 99.6291 14.9601 99.5995 14.8528C99.5954 14.8374 99.553 14.8192 99.5257 14.8174C99.4934 14.8177 99.4621 14.8258 99.4369 14.8404C99.3454 14.8902 99.2527 14.9394 99.1686 14.9952C98.6274 15.3557 98.0695 15.7051 97.5519 16.0828C96.827 16.6119 96.1269 17.1593 95.461 17.7286C94.4471 18.5963 93.4759 19.4875 92.5847 20.4228C91.5727 21.4853 90.6414 22.5816 89.8528 23.7394C89.5996 24.1112 89.3891 24.4951 89.2712 24.9019C89.222 25.0751 89.1807 25.2499 89.1438 25.4246C89.0919 25.6713 88.9819 25.9059 88.8681 26.1395C88.7345 26.4131 88.4723 26.5955 88.0888 26.6874C87.5894 26.8086 87.0565 26.8402 86.5363 26.7795C86.3268 26.7556 86.1164 26.7288 85.9179 26.6675C85.4358 26.5186 85.3674 26.4069 85.4626 26.0681C85.5536 25.7444 85.6444 25.4206 85.7406 25.0977C85.9263 24.4748 86.0849 23.8484 86.2303 23.2207C86.4101 22.4415 86.5964 21.6624 86.7806 20.8832C86.943 20.1972 87.1056 19.5113 87.2686 18.8254C87.2932 18.7209 87.3205 18.6159 87.2903 18.5091C87.2834 18.4844 87.1998 18.453 87.171 18.4677C87.1179 18.4946 87.0593 18.518 87.0148 18.5511C86.0711 19.2574 85.0569 19.9132 83.9805 20.5132C83.4735 20.7942 82.952 21.0602 82.3988 21.2923C81.9605 21.4778 81.4985 21.6326 81.0191 21.7547C80.3893 21.914 79.7399 21.9608 79.0807 21.9156C78.869 21.8985 78.6605 21.8652 78.4586 21.8165C78.034 21.7191 77.7179 21.5188 77.4973 21.2422C77.4322 21.1602 77.3772 21.0744 77.3327 20.9856C77.133 20.5928 77.0375 20.1877 77.0909 19.7692C77.1524 19.2977 77.2818 18.8359 77.5103 18.3903C77.5841 18.2464 77.6655 18.1045 77.7381 17.9604C77.7564 17.9154 77.7692 17.8694 77.7762 17.8228C77.7819 17.7994 77.7024 17.7539 77.6717 17.7631C77.5506 17.7985 77.4274 17.8299 77.3106 17.8715C76.2817 18.2374 75.2534 18.6042 74.2259 18.9717C73.8586 19.1027 73.4899 19.2315 73.1234 19.3636C72.977 19.4167 72.8324 19.4723 72.6912 19.5321C72.5682 19.5842 72.5057 19.6628 72.5239 19.7691C72.5539 19.9447 72.5778 20.1209 72.6134 20.2959C72.7049 20.7428 72.6943 21.1875 72.6119 21.6358C72.5366 22.0455 72.3903 22.4468 72.1763 22.8302C72.0781 23.0055 71.9544 23.1729 71.8073 23.3294C71.5149 23.6466 71.0951 23.892 70.6039 24.033C70.2842 24.127 69.9516 24.189 69.6028 24.1992C69.1922 24.2115 68.7861 24.2118 68.3834 24.1302C67.6966 23.9912 66.9933 23.5249 66.9284 22.7992C66.907 22.5595 66.9663 22.3298 67.0819 22.1056C67.1903 21.8951 67.3373 21.6959 67.519 21.5135C67.8354 21.1947 68.194 20.9056 68.6144 20.6557C68.9794 20.4361 69.3611 20.2314 69.758 20.0427C70.2113 19.8302 70.1489 19.7609 70.0778 19.4852C69.8969 18.7894 69.6613 18.1016 69.372 17.4251C69.345 17.3694 69.3132 17.315 69.2768 17.2622C69.2439 17.209 69.1236 17.1913 69.0692 17.2322C68.9578 17.3185 68.8464 17.4051 68.7438 17.4966C68.1972 17.9834 67.6843 18.4882 67.1867 19.0018C66.4357 19.776 65.6908 20.5532 64.9401 21.3274C64.7337 21.5399 64.5172 21.7481 64.3005 21.9562C64.0152 22.2315 63.6821 22.4761 63.3382 22.7128C63.03 22.9253 62.6546 23.0362 62.2332 23.0581C62.0208 23.0701 61.8073 23.068 61.5954 23.0518C61.1396 23.0144 60.7989 22.851 60.6038 22.543C60.4603 22.3175 60.3493 22.0821 60.2725 21.8404C60.1495 21.4492 60.0528 21.0547 60.0329 20.6513C60.0078 20.2031 60.0141 19.7543 60.0518 19.3065C60.0764 19.0478 60.1224 18.79 60.1662 18.5325C60.2597 17.9823 60.359 17.4325 60.4542 16.8825C60.5047 16.5898 60.5627 16.2981 60.5964 16.0038C60.6247 15.7573 60.6232 15.508 60.6333 15.2612C60.6311 15.2377 60.6263 15.2143 60.6188 15.1914C60.6085 15.1363 60.4983 15.0984 60.4267 15.1283C60.3399 15.1616 60.2567 15.1993 60.1775 15.2411C59.9069 15.3952 59.6363 15.548 59.3773 15.7109C58.9212 15.9993 58.4958 16.3119 58.1048 16.6461C56.8611 17.7034 55.7709 18.8369 54.8612 20.0589C54.5281 20.5062 54.2183 20.9619 53.9316 21.4258C53.7912 21.6525 53.6689 21.8834 53.5899 22.126C53.5566 22.2294 53.5129 22.331 53.4591 22.4299C53.4338 22.4801 53.3931 22.5257 53.34 22.563C53.2869 22.6004 53.2227 22.6287 53.1523 22.6457C53.0762 22.6671 52.9976 22.6837 52.9174 22.6953C52.6904 22.7214 52.4595 22.725 52.2311 22.7057C52.0841 22.6939 51.9419 22.6609 51.8129 22.6087C51.7202 22.5712 51.6592 22.5111 51.6612 22.4378C51.6625 22.2847 51.6765 22.1317 51.7032 21.9797C51.8282 21.3373 51.9603 20.6955 52.0916 20.0536C52.359 18.7461 52.6955 17.4479 53.1189 16.1614C53.1565 16.0474 53.1772 15.9302 53.1991 15.8136C53.1979 15.8023 53.193 15.7913 53.1847 15.7816C53.1763 15.772 53.1649 15.7639 53.1513 15.758C53.1365 15.7536 53.1205 15.7517 53.1045 15.7522C53.0885 15.7528 53.0728 15.7558 53.0586 15.7612C52.9889 15.7921 52.9234 15.8277 52.8631 15.8675C52.3125 16.2389 51.7868 16.6277 51.286 17.0341C49.9122 18.1497 48.7017 19.3538 47.6043 20.6166C47.1261 21.1669 46.6696 21.7272 46.1987 22.2811C45.8986 22.6331 45.5892 22.9811 45.2817 23.3298C45.22 23.3994 45.1527 23.4665 45.0802 23.5306C44.9273 23.6718 44.708 23.768 44.4635 23.8012C44.1042 23.8506 43.7477 23.8575 43.3967 23.7688C43.3505 23.7569 43.3053 23.7431 43.2612 23.7277C43.1207 23.679 43.0201 23.6037 42.9844 23.4929C42.9549 23.4133 42.9379 23.3315 42.9335 23.2492C42.9301 22.8481 42.9089 22.4465 42.9827 22.047C42.9911 22 42.9955 21.9527 42.9957 21.9054C43.0021 21.4095 43.086 20.9165 43.1323 20.4221C43.163 20.0929 43.228 19.7655 43.2818 19.4376C43.3185 19.215 43.3652 18.9935 43.4019 18.7709C43.4154 18.6892 43.4132 18.6062 43.4166 18.523C43.4181 18.4854 43.3792 18.447 43.3428 18.4431C43.285 18.4369 43.2491 18.4631 43.2198 18.4898C43.1683 18.5356 43.1204 18.5835 43.0764 18.6333C42.8199 18.9214 42.5658 19.2107 42.3094 19.499C41.2227 20.7218 40.1504 21.9514 39.0262 23.1568C38.8435 23.3528 38.6572 23.5476 38.4666 23.7392C38.3522 23.8541 38.2275 23.9641 38.1006 24.0721C37.8332 24.2993 37.4777 24.4156 37.0792 24.4617C36.7693 24.4971 36.4566 24.4911 36.159 24.4034C36.0679 24.3772 35.9813 24.3437 35.9007 24.3034C35.777 24.243 35.6879 24.1523 35.65 24.0482C35.5984 23.8996 35.5467 23.7511 35.5364 23.5961C35.5012 23.0649 35.4961 22.5336 35.5664 22.0042C35.6336 21.4995 35.7511 20.9985 35.882 20.499C36.2414 19.1298 36.7371 17.7849 37.2731 16.4471C37.7139 15.3469 38.2016 14.2579 38.7362 13.1799C38.7911 13.0691 38.8366 12.9556 38.8762 12.8415C38.8863 12.8127 38.8626 12.7748 38.8435 12.7447C38.8275 12.7197 38.7554 12.7225 38.7114 12.7447C38.6713 12.7652 38.6302 12.7849 38.5918 12.8068C38.4637 12.8805 38.3367 12.955 38.2091 13.0292C37.4558 13.466 36.7025 13.9028 35.9489 14.3396C35.3982 14.6568 34.8243 14.9514 34.2351 15.2307C33.5906 15.5363 32.9284 15.8186 32.2222 16.0453C32.1924 16.0548 32.1632 16.0654 32.1332 16.0752C31.957 16.132 31.849 16.2316 31.792 16.3613C31.7524 16.4513 31.7182 16.5423 31.6805 16.6328C31.2508 17.6751 30.73 18.693 30.087 19.6772C29.5004 20.5751 28.8502 21.448 28.1039 22.2836C27.6338 22.81 27.1173 23.3141 26.5574 23.7928C26.0811 24.2001 25.5513 24.5697 24.9931 24.9182C24.7065 25.0972 24.3959 25.2486 24.0283 25.3324C23.8709 25.3678 23.7135 25.3991 23.5482 25.4021C23.3187 25.4064 23.0892 25.4105 22.8594 25.4094C22.3018 25.4069 21.8922 25.2134 21.5968 24.8858C21.5102 24.7856 21.4366 24.6799 21.3771 24.57C21.2206 24.2954 21.1377 24.0062 21.0846 23.7132C21.0039 23.2678 20.9616 22.8205 20.9877 22.3712C20.999 22.1711 21.0214 21.9712 21.0396 21.7713C21.045 21.7123 21.0553 21.6537 21.0605 21.5942C21.1097 21.0276 21.2243 20.4685 21.3424 19.9084C21.4752 19.2782 21.6479 18.654 21.8413 18.0314C21.8624 17.9636 21.8875 17.8934 21.8366 17.8249C21.8191 17.8014 21.7874 17.7895 21.7559 17.8045C21.7013 17.829 21.6525 17.8595 21.6113 17.895C21.385 18.1123 21.1594 18.3299 20.9412 18.5513C20.0404 19.4661 19.1509 20.3865 18.3042 21.3279C17.1006 22.6659 15.9607 24.0308 14.913 25.4361C14.6574 25.7791 14.3718 26.1108 14.0973 26.4455C14.0306 26.5268 13.9557 26.6045 13.8732 26.678C13.578 26.939 13.1975 27.0839 12.7294 27.103C12.4834 27.1129 12.2401 27.1021 12.0032 27.0382C11.7016 26.9567 11.5113 26.8106 11.4485 26.582C11.3885 26.3623 11.3474 26.1407 11.311 25.9178C11.2264 25.3997 11.2311 24.8803 11.2539 24.362C11.2736 23.9145 11.3258 23.4672 11.4015 23.0218C11.4468 22.7525 11.479 22.4821 11.5162 22.2121C11.56 21.8953 11.5959 21.5776 11.648 21.2615C11.7117 20.8749 11.7794 20.4885 11.8625 20.1039C11.9683 19.6147 12.0817 19.1261 12.2069 18.6389C12.342 18.1169 12.5021 17.5991 12.6603 17.0806C12.9584 16.1003 13.3441 15.1368 13.7333 14.1739C13.7788 14.0611 13.8132 13.946 13.8462 13.8309C13.8511 13.8132 13.8265 13.7836 13.8036 13.773C13.7898 13.7676 13.7745 13.7646 13.7588 13.7641C13.7431 13.7637 13.7275 13.7658 13.7131 13.7703C13.6287 13.8058 13.5476 13.8453 13.4703 13.8884C12.579 14.3903 11.6885 14.8927 10.7989 15.3957C8.75717 16.5443 6.72039 17.6963 4.67377 18.8385C3.28689 19.612 1.8855 20.372 0.488532 21.1359C0.332575 21.2213 0.16309 21.2937 0 21.3722V20.5222C0.102823 20.5209 0.191133 20.4905 0.270587 20.4483C0.429741 20.3649 0.588158 20.281 0.744606 20.1949C2.71251 19.1137 4.66787 18.0203 6.61068 16.9147C8.42197 15.8802 10.2213 14.835 12.0086 13.7792C12.555 13.4583 13.1119 13.147 13.6668 12.8337C13.8087 12.7536 13.9566 12.6791 14.1096 12.6105C14.5969 12.3921 15.1167 12.3399 15.6655 12.47C15.7431 12.4887 15.8174 12.5138 15.8869 12.5449C16.0197 12.6041 16.1058 12.691 16.1083 12.8052C16.1115 12.9228 16.1129 13.0425 16.0861 13.158C15.9915 13.565 15.8898 13.9713 15.7809 14.3768C15.5676 15.1762 15.3469 15.9744 15.1317 16.7736C14.9513 17.4452 14.7722 18.1171 14.5945 18.7893C14.3696 19.635 14.148 20.4815 13.9738 21.3334C13.8806 21.7883 13.8142 22.2462 13.7384 22.7029C13.6838 23.0309 13.6331 23.3581 13.5825 23.6873C13.5699 23.7693 13.5653 23.852 13.5549 23.9352C13.5345 24.0995 13.5114 24.2639 13.4922 24.4284C13.4676 24.6276 13.4265 24.8266 13.4676 25.0271C13.4695 25.0329 13.4733 25.0383 13.4789 25.0428C13.4844 25.0472 13.4915 25.0506 13.4993 25.0526C13.5281 25.0556 13.5665 25.0598 13.5866 25.0494C13.6259 25.0286 13.6593 25.0027 13.685 24.9729C13.7884 24.8525 13.8887 24.7307 13.9879 24.6083C14.6734 23.7619 15.39 22.9296 16.128 22.1063C17.809 20.2307 19.5998 18.4107 21.4752 16.6335C21.7825 16.342 22.0954 16.0538 22.4078 15.7658C22.477 15.6999 22.5524 15.6374 22.6334 15.5788C22.8078 15.4514 23.0406 15.3738 23.2884 15.3603C23.4846 15.3472 23.6824 15.3516 23.8771 15.3736C23.9572 15.3849 24.0355 15.402 24.111 15.4244C24.281 15.4722 24.3767 15.5641 24.3732 15.6957C24.3718 15.8017 24.3572 15.9075 24.3294 16.0116C24.2028 16.4625 24.0739 16.9131 23.9359 17.3622C23.7091 18.0994 23.4931 18.8385 23.3192 19.583C23.1881 20.1411 23.0759 20.7014 22.978 21.2636C22.9167 21.6153 22.8796 21.968 22.8373 22.3202C22.7699 22.8855 22.7844 23.4536 22.9133 24.0149C22.9507 24.1775 23.0063 24.3382 23.0609 24.4987C23.0851 24.5672 23.1167 24.6343 23.1556 24.6993C23.2294 24.8296 23.3435 24.8537 23.5014 24.7701C23.6205 24.7078 23.7435 24.6462 23.8478 24.5723C24.5238 24.0909 25.1946 23.6062 25.7665 23.055C26.3753 22.4678 26.9472 21.8636 27.4604 21.231C28.4786 19.9769 29.3228 18.6537 29.9808 17.2806C30.0875 17.0574 30.1776 16.8303 30.272 16.6045C30.2885 16.559 30.3005 16.5127 30.3079 16.466C30.3158 16.4306 30.2612 16.3598 30.2164 16.35C30.0915 16.322 29.965 16.2969 29.8403 16.2682C29.7305 16.245 29.6223 16.2177 29.5163 16.1866C29.1496 16.0706 28.9092 15.8678 28.7848 15.5978C28.6805 15.3717 28.634 15.1374 28.6731 14.8996C28.7223 14.5916 28.8453 14.2998 29.061 14.0294C29.3365 13.685 29.7409 13.4564 30.2664 13.3471C30.6353 13.2708 31.0151 13.2745 31.3861 13.339C31.7654 13.4052 32.018 13.5837 32.1322 13.8525C32.1895 13.9874 32.2392 14.1257 32.2392 14.2692C32.2392 14.5171 32.2564 14.765 32.1865 15.0102C32.1619 15.1014 32.1669 15.1974 32.1619 15.2913C32.16 15.335 32.2466 15.3798 32.3004 15.3644C32.3757 15.3426 32.4549 15.3238 32.5218 15.2925C33.0185 15.0632 33.5193 14.8378 34.0059 14.5978C34.67 14.2707 35.303 13.9152 35.9246 13.5486C36.8126 13.0252 37.6981 12.4994 38.5876 11.9772C38.8161 11.843 39.0508 11.7144 39.2919 11.5914C39.7743 11.3454 40.3004 11.3465 40.8438 11.4626C40.8754 11.4691 40.9059 11.4779 40.9349 11.489C41.0883 11.5489 41.1973 11.6369 41.2037 11.7658C41.2136 11.8952 41.2066 12.0251 41.1828 12.1536C41.1297 12.398 41.0709 12.6423 40.9764 12.8812C40.7068 13.562 40.4382 14.243 40.1706 14.9242C39.6272 16.2969 39.0786 17.6689 38.6078 19.0556C38.3434 19.8348 38.0979 20.6175 37.8944 21.4063C37.8167 21.7074 37.7513 22.0111 37.6831 22.3139C37.6767 22.3489 37.6801 22.3846 37.6932 22.4187C37.698 22.4291 37.706 22.4386 37.7166 22.4465C37.7271 22.4544 37.74 22.4605 37.7542 22.4644C37.7699 22.4664 37.786 22.466 37.8015 22.4635C37.817 22.4609 37.8316 22.4561 37.8445 22.4493C37.883 22.4276 37.9166 22.4017 37.9441 22.3727C38.0287 22.2857 38.1104 22.1972 38.1916 22.1085C39.5468 20.631 40.9018 19.1535 42.2565 17.676C42.7534 17.1341 43.2494 16.5919 43.7443 16.0493C44.1251 15.6363 44.4696 15.2064 44.7757 14.7623C44.8047 14.72 44.8357 14.6784 44.8694 14.6384C44.9395 14.5576 45.0426 14.4944 45.1646 14.4576C45.2241 14.4376 45.2865 14.4224 45.3506 14.4121C45.7757 14.3488 46.197 14.3451 46.6073 14.4636C46.6672 14.4826 46.7232 14.5074 46.7736 14.5374C46.8403 14.5746 46.889 14.626 46.8887 14.6874C46.8923 14.7814 46.8841 14.8755 46.8641 14.9684C46.7758 15.3164 46.69 15.6652 46.5822 16.0104C46.3274 16.8279 46.1037 17.6497 45.9112 18.4759C45.73 19.255 45.5513 20.0347 45.3752 20.8151C45.3668 20.8502 45.3653 20.8859 45.3708 20.9213C45.3742 20.9427 45.3981 20.9803 45.4118 20.9801C45.4568 20.9801 45.5166 20.9746 45.5432 20.9534C45.6061 20.899 45.6636 20.8414 45.7154 20.7813C46.0804 20.389 46.4359 19.992 46.8115 19.6053C47.8373 18.5513 48.9559 17.5457 50.1606 16.5949C50.8017 16.0883 51.4681 15.6006 52.1873 15.1514C52.373 15.0356 52.5664 14.9259 52.7592 14.8162C53.0828 14.6322 53.4708 14.5162 53.8802 14.4811C54.1909 14.4517 54.7589 14.5064 55.0346 14.6035C55.3052 14.6989 55.4688 14.8525 55.4821 15.0745C55.4961 15.3459 55.4781 15.6176 55.4282 15.8868C55.3104 16.5545 55.1183 17.2126 54.9286 17.871C54.8954 17.9862 54.8492 18.1012 54.887 18.2202C54.8891 18.2258 54.893 18.231 54.8984 18.2354C54.9038 18.2398 54.9105 18.2433 54.918 18.2455C54.9468 18.2488 54.9842 18.2536 55.0051 18.2437C55.0453 18.2235 55.0806 18.1986 55.1094 18.17C55.228 18.0571 55.3429 17.942 55.4604 17.8285C55.9701 17.336 56.4936 16.8517 57.0623 16.3941C57.5321 16.0155 58.0052 15.6387 58.5476 15.3118C58.8113 15.1527 59.0788 14.9968 59.3502 14.8443C59.4791 14.7719 59.6208 14.7113 59.7571 14.6456C60.318 14.3756 60.9356 14.3072 61.5919 14.38C61.6728 14.3892 61.7526 14.4029 61.8305 14.4209C62.2182 14.5095 62.4873 14.6897 62.5879 14.975C62.6603 15.1802 62.7254 15.3906 62.7434 15.6008C62.796 16.2137 62.8017 16.8271 62.6814 17.438C62.5754 17.9751 62.4802 18.5134 62.3796 19.051C62.215 19.9318 62.2035 20.8158 62.275 21.7014C62.2824 21.795 62.2888 21.8896 62.3488 21.9774C62.3779 22.0201 62.4659 22.0424 62.5117 22.0089C62.6054 21.9435 62.6944 21.8747 62.7783 21.8026C63.4804 21.1639 64.1805 20.5234 64.8486 19.8665C65.3528 19.3717 65.8672 18.8821 66.3811 18.3923C67.1028 17.7041 67.8713 17.0436 68.6734 16.4035C68.7834 16.315 68.8904 16.2264 69.0006 16.1391C69.124 16.0435 69.2164 15.9294 69.2712 15.805C69.4987 15.2773 69.9624 14.8751 70.553 14.5371C71.0187 14.2715 71.5333 14.0646 72.0713 13.8875C72.6684 13.6918 73.2929 13.5427 73.9341 13.4429C74.5186 13.3506 75.1068 13.3556 75.6959 13.3912C75.8733 13.402 76.0477 13.4456 76.2211 13.4797C76.2826 13.492 76.3387 13.5206 76.3945 13.5451C76.501 13.592 76.5593 13.6605 76.5446 13.7519C76.532 13.828 76.4658 13.8805 76.3741 13.9145C76.1379 14.0018 75.7205 14.0549 75.4669 14.0308C75.3043 14.0154 75.1427 13.9954 74.9798 13.9828C74.7999 13.9679 74.6177 13.9809 74.4453 14.0209C73.7054 14.1957 73.0242 14.4459 72.4336 14.8177C72.1982 14.9652 71.9922 15.1354 71.8216 15.3235C71.5657 15.6 71.4196 15.9217 71.3992 16.2537C71.3808 16.54 71.4174 16.8203 71.5372 17.0929C71.7748 17.6328 72.0211 18.1706 72.2654 18.7089C72.288 18.753 72.3148 18.7959 72.3455 18.8375C72.3667 18.8691 72.4685 18.8936 72.5195 18.8794C72.5955 18.8576 72.673 18.8375 72.746 18.8116C72.9813 18.7284 73.2159 18.6439 73.4495 18.5582C74.282 18.2524 75.1141 17.9464 75.9458 17.6402C76.6914 17.3675 77.4387 17.0978 78.1843 16.8257C78.2581 16.7991 78.3299 16.7715 78.402 16.7435C78.5767 16.6768 78.7261 16.5804 78.8374 16.4628C78.939 16.3555 79.0391 16.2475 79.1449 16.1423C80.362 14.9304 81.9541 14.0753 83.8976 13.5534C84.375 13.4261 84.878 13.3553 85.3868 13.3437C85.7278 13.3351 86.0756 13.3699 86.3954 13.4718C86.7511 13.5842 86.7368 13.8045 86.5799 13.966C86.4552 14.0911 86.2994 14.1985 86.1204 14.2828C85.7398 14.4675 85.364 14.6584 84.9701 14.8275C84.183 15.1661 83.3838 15.493 82.588 15.8227C82.0766 16.0352 81.5622 16.2429 81.0491 16.4531C80.9923 16.4763 80.9377 16.5034 80.8789 16.5239C80.6159 16.6156 80.4388 16.7651 80.3131 16.9507C80.2191 17.0883 80.1207 17.2244 80.0268 17.362C79.6178 17.9545 79.3164 18.5825 79.1301 19.2304C79.0283 19.5897 78.9592 19.9511 78.9911 20.32C79.0118 20.558 79.0895 20.7859 79.2012 21.0088C79.257 21.1203 79.3432 21.2226 79.4546 21.3098C79.5382 21.3764 79.6415 21.4046 79.7638 21.3869C79.8277 21.3768 79.8906 21.3636 79.952 21.3472C80.3547 21.2463 80.744 21.1194 81.115 20.9681C81.7403 20.7086 82.3396 20.4179 82.9085 20.0983C84.127 19.4179 85.2708 18.6709 86.3297 17.8639C86.7134 17.5728 87.0815 17.271 87.4704 16.9836C87.6979 16.8152 87.8192 16.6194 87.8826 16.3936C88.0415 15.8269 88.206 15.2612 88.3761 14.6964C88.7925 13.3092 89.3507 11.9538 90.1408 10.6511C90.696 9.73982 91.3397 8.86451 92.1473 8.05544C92.7913 7.40998 93.529 6.82668 94.3888 6.32572C94.7983 6.08702 95.2382 5.88196 95.7255 5.73499C95.9063 5.68027 96.0944 5.63848 96.2807 5.59332C96.6462 5.50337 97.0238 5.51399 97.4011 5.52727C97.5495 5.53419 97.6924 5.57 97.8146 5.63087C97.8843 5.66226 97.9436 5.70412 97.9887 5.75357C98.0337 5.80302 98.0634 5.8589 98.0756 5.91738C98.1189 6.11854 98.0904 6.31811 98.0395 6.51591C97.9283 6.9471 97.7347 7.3604 97.5067 7.76574C97.2115 8.29166 96.8538 8.79651 96.4735 9.29269C95.8551 10.0993 95.1671 10.8754 94.4633 11.6443C93.6331 12.5513 92.7561 13.4348 91.8634 14.3102C91.8052 14.3674 91.7471 14.4246 91.6873 14.4808C91.5134 14.6444 91.4261 14.8296 91.384 15.0333C91.2342 15.7566 91.0714 16.4784 90.9166 17.2012C90.7691 17.8892 90.6286 18.5777 90.4832 19.2656C90.4094 19.6154 90.3295 19.9646 90.2569 20.3146C90.2478 20.3587 90.2645 20.4062 90.2744 20.4515C90.2815 20.4845 90.3637 20.5031 90.3959 20.4795C90.4663 20.4312 90.5331 20.3802 90.5959 20.3267C91.0549 19.9109 91.506 19.4905 91.9702 19.0776C93.0526 18.1132 94.1898 17.1832 95.3821 16.2877C96.1402 15.7152 96.9163 15.1554 97.7221 14.6173C98.2032 14.2962 98.708 13.9941 99.2342 13.7122C99.4982 13.5706 99.7739 13.4443 100.095 13.3776C100.698 13.252 101.294 13.2701 101.882 13.4232C102.24 13.5167 102.432 13.7128 102.491 13.9766C102.516 14.0933 102.527 14.2114 102.524 14.3295C102.516 14.6006 102.507 14.8712 102.446 15.1409C102.356 15.5365 102.289 15.9349 102.213 16.3323C102.173 16.5427 102.143 16.7541 102.094 16.9634C101.978 17.4644 101.913 17.9698 101.846 18.4743C101.784 18.9439 101.749 19.4158 101.728 19.8872C101.709 20.3235 101.718 20.7607 101.726 21.1976C101.73 21.4101 101.761 21.6211 101.779 21.8331C101.788 21.9273 101.801 22.0213 101.804 22.1164C101.82 22.5768 101.909 23.0332 102.022 23.4863C102.059 23.6363 102.092 23.7891 102.189 23.929C102.208 23.955 102.238 23.9762 102.274 23.9898C102.31 24.0035 102.351 24.009 102.392 24.0055C102.441 24.0004 102.489 23.993 102.536 23.9834C102.66 23.954 102.784 23.9226 102.907 23.8904C103.416 23.7574 103.912 23.6018 104.4 23.4332C105.405 23.0856 106.384 22.7011 107.343 22.2917C109.15 21.5211 110.901 20.6892 112.627 19.8287C115.27 18.5113 117.85 17.1322 120.417 15.7396C121.464 15.1714 122.508 14.5989 123.554 14.0294C123.951 13.8132 124.054 13.7868 124.195 13.314C124.578 12.033 125.041 10.7669 125.596 9.51882C126.05 8.4953 126.573 7.48984 127.199 6.51325C127.873 5.46016 128.661 4.45382 129.607 3.51388C130.42 2.70604 131.361 1.98604 132.458 1.37423C133.156 0.980856 133.919 0.651112 134.729 0.3925C135.362 0.193664 136.034 0.0668936 136.72 0.0167373C137.244 -0.0259725 137.774 0.0132914 138.274 0.131839C138.414 0.16488 138.551 0.205977 138.681 0.254732C139.151 0.432874 139.413 0.722222 139.491 1.09373C139.547 1.36309 139.537 1.63746 139.461 1.90423C139.387 2.15852 139.288 2.40872 139.165 2.65292C138.817 3.35628 138.339 4.01413 137.813 4.65551C136.877 5.79643 135.8 6.86617 134.65 7.89908C133.737 8.71931 132.782 9.5131 131.785 10.2804C131.089 10.8147 130.378 11.3371 129.64 11.8405C128.807 12.4088 127.958 12.9651 127.084 13.5003C127.034 13.5309 126.985 13.5633 126.933 13.592C126.658 13.7425 126.506 13.9433 126.443 14.1861C126.341 14.5803 126.225 14.9727 126.123 15.3672C126 15.8544 125.877 16.3422 125.769 16.8313C125.676 17.2505 125.599 17.6717 125.52 18.0925C125.464 18.3847 125.415 18.6768 125.366 18.9701C125.35 19.0638 125.341 19.158 125.33 19.252C125.311 19.3929 125.292 19.5338 125.272 19.6745C125.267 19.7099 125.258 19.7453 125.256 19.7808C125.218 20.4182 125.119 21.0515 125.127 21.6897C125.134 22.2799 125.132 22.8701 125.143 23.4605C125.147 23.673 125.178 23.884 125.198 24.0958C125.2 24.1194 125.206 24.1427 125.207 24.1667C125.217 24.5208 125.274 24.873 125.332 25.2243C125.475 26.0814 125.677 26.9289 126.109 27.7389C126.134 27.7828 126.157 27.8274 126.184 27.8694C126.243 27.9625 126.374 27.9744 126.449 27.8905C126.521 27.8116 126.586 27.7298 126.644 27.6456C127.204 26.831 127.718 26.0012 128.23 25.1709C129.009 23.9087 129.841 22.6645 130.776 21.4575C132.207 19.609 133.803 17.8382 135.646 16.1862C136.602 15.3293 137.616 14.5102 138.737 13.7622C139.339 13.3602 139.967 12.9818 140.661 12.6643C140.868 12.5685 141.082 12.4812 141.303 12.4029C141.798 12.229 142.325 12.1562 142.877 12.1688C143.172 12.1755 143.467 12.1934 143.75 12.2588C143.989 12.3137 144.23 12.3239 144.479 12.3154C144.675 12.3111 144.872 12.3142 145.069 12.3248C145.266 12.3356 145.457 12.3768 145.63 12.4454C145.847 12.5276 145.914 12.6579 145.861 12.7966C145.791 12.9784 145.721 13.1603 145.647 13.3414C145.369 14.032 145.084 14.7227 144.872 15.4265C144.685 16.0493 144.519 16.6744 144.407 17.3071C144.312 17.8458 144.226 18.3845 144.202 18.9278C144.198 19.0099 144.177 19.0919 144.171 19.1743C144.162 19.3037 144.148 19.4339 144.157 19.5638C144.176 19.8472 144.208 20.1289 144.237 20.4112C144.246 20.4931 144.249 20.5773 144.309 20.6513C144.325 20.6706 144.354 20.6994 144.374 20.6984C144.42 20.6963 144.464 20.6843 144.501 20.664C144.537 20.6424 144.56 20.6082 144.584 20.5778C144.676 20.4659 144.765 20.3533 144.855 20.2413C145.199 19.8123 145.538 19.3806 145.891 18.9549C147.121 17.4702 148.53 16.0794 150.144 14.7995C151.027 14.1002 151.947 13.4275 152.949 12.8148C153.136 12.7001 153.327 12.5888 153.521 12.4799C153.973 12.2255 154.429 11.974 154.882 11.7204C155.216 11.53 155.575 11.3627 155.953 11.2206C156.42 11.0467 156.926 10.9346 157.448 10.8898C157.948 10.8466 158.428 10.8898 158.904 10.9843C159.076 11.0187 159.24 11.0773 159.402 11.1334C159.521 11.1745 159.615 11.2415 159.697 11.3179C159.874 11.4856 159.818 11.6994 159.566 11.8039C159.394 11.8747 159.21 11.9259 159.01 11.936C158.847 11.9445 158.683 11.951 158.518 11.9515C158.221 11.9528 157.93 11.9236 157.654 11.8377C157.445 11.7725 157.242 11.7884 157.034 11.8469C156.633 11.9563 156.271 12.1275 155.973 12.3484C155.7 12.552 155.43 12.7596 155.18 12.9774C154.623 13.4603 154.153 13.9855 153.747 14.541C153 15.5604 152.476 16.6372 152.13 17.7603C151.995 18.1864 151.898 18.6181 151.839 19.053C151.792 19.4225 151.864 19.7834 152.016 20.1356C152.078 20.2832 152.182 20.4199 152.322 20.5369C152.386 20.59 152.458 20.6382 152.537 20.6805C152.691 20.7639 152.866 20.782 153.05 20.7407C153.143 20.7182 153.235 20.6922 153.324 20.663C153.958 20.4673 154.559 20.221 155.116 19.9286C155.567 19.6925 156.002 19.4412 156.42 19.1748C157.453 18.5173 158.408 17.8031 159.317 17.0574C160.443 16.134 161.475 15.1567 162.496 14.1728C162.868 13.8134 163.234 13.4498 163.617 13.0962C163.87 12.8639 164.052 12.5957 164.152 12.3092C164.363 11.7151 164.59 11.1238 164.831 10.5354C165.654 8.52877 166.674 6.57576 167.941 4.69181C168.399 4.01183 168.873 3.33804 169.442 2.70197C169.628 2.49373 169.821 2.28814 170.024 2.08786C170.332 1.78019 170.692 1.50133 171.095 1.25771C171.245 1.16564 171.406 1.08394 171.577 1.01369C172.074 0.816605 172.609 0.801199 173.155 0.870968C173.187 0.875041 173.217 0.886906 173.249 0.893103C173.67 0.975977 173.842 1.21592 173.802 1.51749C173.743 1.95363 173.593 2.37632 173.395 2.79086C173.09 3.42835 172.726 4.04636 172.34 4.65941C171.075 6.67404 169.577 8.59801 167.94 10.4676C167.879 10.5384 167.821 10.6093 167.754 10.676C167.51 10.9193 167.365 11.191 167.268 11.4817C166.93 12.4911 166.583 13.4985 166.238 14.5064C165.709 16.0529 165.179 17.5994 164.65 19.1459C164.611 19.26 164.589 19.3761 164.565 19.493C164.563 19.5038 164.605 19.5217 164.63 19.5314C164.637 19.5327 164.645 19.5324 164.653 19.5308C164.661 19.5292 164.667 19.5261 164.673 19.522C164.755 19.4347 164.842 19.3492 164.914 19.2577C165.326 18.7336 165.759 18.2186 166.212 17.7126C167.11 16.7097 168.07 15.7387 169.125 14.8179C169.784 14.244 170.471 13.6889 171.243 13.192C171.499 13.0271 171.77 12.8732 172.043 12.7227C172.402 12.5262 172.81 12.41 173.255 12.3556C173.755 12.2945 174.236 12.3526 174.704 12.4745C175.161 12.5936 175.411 12.8463 175.501 13.1828C175.601 13.5422 175.627 13.9104 175.576 14.2752C175.531 14.592 175.476 14.9081 175.43 15.2247C175.37 15.6475 175.271 16.0662 175.168 16.4842C174.933 17.4486 174.683 18.411 174.455 19.3763C174.308 20.0042 174.174 20.6336 174.066 21.2663C174.002 21.6403 173.934 22.0153 173.923 22.3941C173.916 22.665 173.845 22.9338 173.864 23.2064C173.891 23.5835 173.924 23.9604 174.041 24.3297C174.078 24.4446 174.126 24.5575 174.184 24.6678C174.211 24.7209 174.268 24.7677 174.315 24.8149C174.349 24.8489 174.442 24.8681 174.495 24.8504C174.6 24.8184 174.703 24.7825 174.804 24.7427C175.114 24.6105 175.412 24.4633 175.695 24.3021C176.236 23.9947 176.749 23.6646 177.249 23.3225C177.855 22.908 178.46 22.4925 179.052 22.0674C179.621 21.659 180.172 21.2379 180.73 20.8223C180.764 20.7968 180.799 20.7713 180.829 20.7437C180.913 20.6681 180.967 20.5843 180.966 20.4845C180.964 20.3664 180.966 20.2482 180.958 20.1303C180.929 19.7171 180.938 19.3031 180.984 18.8908C181.032 18.4316 181.135 17.9763 181.294 17.5302C181.579 16.7252 181.999 15.9594 182.613 15.2521C183.116 14.6695 183.746 14.1492 184.48 13.7115C184.81 13.515 185.162 13.3427 185.554 13.2171C186.054 13.0578 186.572 12.9549 187.125 12.9692C187.438 12.9745 187.746 13.0241 188.031 13.1153C188.393 13.2334 188.578 13.442 188.602 13.7271C188.626 14.0122 188.554 14.2899 188.425 14.561C188.226 14.9753 187.965 15.3686 187.677 15.7534C186.654 17.1208 185.416 18.3808 184.012 19.5573C183.787 19.7452 183.556 19.9291 183.33 20.116C183.263 20.1677 183.2 20.2223 183.142 20.2794C183.037 20.3897 182.985 20.5126 183.008 20.6479C183.122 21.3297 183.295 22.001 183.696 22.6312C183.869 22.9011 184.081 23.1523 184.363 23.3705C184.451 23.4404 184.549 23.5031 184.656 23.5575C184.723 23.5919 184.801 23.6141 184.883 23.6224C184.964 23.6306 185.047 23.6247 185.125 23.605C185.33 23.5579 185.519 23.4858 185.7 23.4061C186.049 23.2509 186.378 23.0731 186.682 22.8749C187.219 22.5284 187.723 22.1557 188.19 21.7593C188.901 21.1552 189.556 20.5208 190.192 19.8755C191.112 18.9412 191.971 17.9776 192.807 17.0033C193.668 15.9998 194.528 14.9948 195.386 13.9883C195.56 13.7884 195.708 13.5771 195.827 13.3572C196.021 12.9936 196.219 12.6314 196.423 12.2706C196.497 12.14 196.587 12.0139 196.677 11.8881C196.821 11.6854 197.051 11.5731 197.363 11.5251C197.693 11.4743 198.013 11.4779 198.333 11.5529C198.395 11.5681 198.454 11.5874 198.512 11.6105C198.548 11.6247 198.578 11.6451 198.601 11.6697C198.623 11.6944 198.637 11.7227 198.641 11.7521C198.662 11.8598 198.634 11.9634 198.592 12.0661C198.469 12.3721 198.346 12.6784 198.222 12.9839C197.812 13.9795 197.401 14.9745 197.041 15.9801C196.784 16.6997 196.538 17.4215 196.29 18.1428C196.266 18.2232 196.25 18.3048 196.243 18.387C196.242 18.3997 196.283 18.4174 196.308 18.4286C196.315 18.4302 196.323 18.4305 196.331 18.4294C196.339 18.4284 196.346 18.426 196.352 18.4226C196.408 18.3802 196.459 18.3351 196.506 18.2876C196.748 18.0208 196.983 17.7504 197.227 17.4847C198.369 16.2444 199.632 15.0642 201.007 13.9531C201.716 13.3799 202.461 12.8316 203.242 12.3082C203.734 11.9779 204.249 11.6663 204.803 11.3904C205.032 11.2763 205.265 11.1658 205.507 11.0668C206.033 10.8521 206.604 10.7616 207.207 10.7736C207.486 10.7813 207.763 10.8144 208.03 10.8721C208.605 10.9912 208.998 11.2554 209.196 11.6654C209.344 11.9659 209.434 12.2796 209.464 12.5977C209.496 12.9639 209.464 13.3294 209.458 13.6956C209.455 14.0023 209.446 14.309 209.388 14.6141C209.366 14.7306 209.372 14.8498 209.359 14.9683C209.343 15.1211 209.322 15.2737 209.303 15.4264C209.293 15.5087 209.277 15.5907 209.272 15.6732C209.256 15.9325 209.228 16.191 209.193 16.4495C209.157 16.7194 209.159 16.9918 209.142 17.2629C209.134 17.3806 209.117 17.498 209.108 17.6158C209.1 17.722 209.091 17.8283 209.089 17.9345C209.087 18.147 209.084 18.3595 209.089 18.572C209.093 18.7137 209.113 18.8543 209.122 18.9956C209.135 19.1959 209.144 19.3963 209.157 19.5977C209.203 20.2945 209.321 20.9842 209.559 21.6619C209.687 22.0293 209.878 22.3805 210.095 22.7243C210.226 22.9289 210.421 23.1089 210.665 23.2504C210.715 23.2806 210.768 23.3087 210.822 23.3347C210.997 23.4174 211.181 23.441 211.385 23.3925C211.711 23.314 212.035 23.2317 212.346 23.1229C212.773 22.972 213.182 22.7968 213.571 22.5991C214.445 22.1577 215.261 21.6643 216.049 21.1471C216.813 20.6463 217.55 20.1259 218.293 19.6086C219.059 19.0753 219.838 18.5516 220.621 18.0326C221.779 17.2646 222.966 16.5198 224.168 15.7885C225.948 14.7067 227.776 13.6694 229.629 12.653C230.659 12.0875 231.677 11.5101 232.699 10.9372C232.802 10.8793 232.898 10.8149 232.998 10.7534L233 11.8116ZM137.79 1.28232C137.79 1.29437 137.788 1.22371 137.78 1.15323C137.764 1.01158 137.706 0.874049 137.61 0.749847C137.5 0.603225 137.332 0.522123 137.095 0.519643C136.915 0.518485 136.735 0.537176 136.563 0.575069C136.103 0.673348 135.68 0.825991 135.274 1.00697C134.347 1.42062 133.54 1.93539 132.824 2.5256C131.936 3.25818 131.205 4.06885 130.564 4.92272C129.886 5.82778 129.338 6.7748 128.859 7.74289C128.336 8.79935 127.905 9.87546 127.505 10.9587C127.446 11.118 127.389 11.2774 127.335 11.4385C127.325 11.4847 127.32 11.5315 127.32 11.5783C127.318 11.6091 127.389 11.642 127.424 11.6314C127.579 11.5837 127.69 11.4957 127.809 11.4152C128.954 10.6381 130.069 9.83916 131.13 9.00175C132.656 7.79936 134.07 6.52498 135.361 5.1871C135.969 4.55711 136.513 3.89576 136.986 3.20842C137.241 2.83814 137.469 2.45937 137.626 2.06059C137.716 1.83304 137.791 1.60372 137.79 1.28232ZM97.1355 6.20159C97.1325 6.18388 97.1234 6.11447 97.1096 6.04523C97.1018 6.00556 97.0061 5.96802 96.9542 5.98113C96.9237 5.98874 96.8873 5.99034 96.8624 6.00326C96.5043 6.19008 96.1491 6.3815 95.8472 6.61436C95.442 6.92246 95.0713 7.25316 94.7386 7.60335C94.2326 8.14185 93.82 8.71647 93.455 9.30969C92.7965 10.3805 92.3596 11.5014 92.0037 12.6406C91.9917 12.6867 91.9895 12.7338 91.997 12.7804C91.9999 12.7911 92.0063 12.801 92.0157 12.8095C92.0251 12.818 92.0372 12.8247 92.0509 12.8291C92.0665 12.8315 92.0826 12.8313 92.098 12.8286C92.1135 12.8258 92.1279 12.8206 92.1402 12.8134C92.2093 12.7635 92.2735 12.7103 92.3323 12.654C93.089 11.9142 93.841 11.1719 94.5368 10.401C95.188 9.67943 95.7951 8.93959 96.3134 8.16328C96.5261 7.84453 96.7328 7.52438 96.8811 7.18669C97.0152 6.88352 97.1296 6.57665 97.1355 6.20159ZM187.086 13.818C187.076 13.784 187.056 13.7032 187.028 13.6232C187.008 13.566 186.902 13.5275 186.833 13.5484C186.773 13.5656 186.713 13.5854 186.656 13.6078C186.327 13.7452 186.047 13.9293 185.784 14.1224C185.245 14.5194 184.784 14.9676 184.413 15.4545C183.708 16.3753 183.306 17.3659 183.099 18.4009C183.079 18.5178 183.069 18.6354 183.069 18.7532C183.069 18.7695 183.103 18.7944 183.129 18.8011C183.144 18.8042 183.159 18.8048 183.175 18.8029C183.19 18.801 183.204 18.7967 183.217 18.7903C183.278 18.7517 183.335 18.7091 183.385 18.663C183.844 18.2327 184.311 17.8067 184.756 17.3691C185.337 16.7975 185.851 16.1927 186.294 15.5606C186.523 15.2342 186.744 14.9054 186.903 14.5569C187.005 14.3331 187.088 14.1054 187.086 13.818ZM143.033 13.1181C143.019 13.0928 143.013 13.0677 142.994 13.0501C142.857 12.9244 142.656 12.8908 142.473 12.9712C142.332 13.0316 142.197 13.0979 142.067 13.1697C141.547 13.4586 141.105 13.8139 140.763 14.2178C140.542 14.4792 140.33 14.7455 140.133 15.0168C139.526 15.8556 139.058 16.7345 138.708 17.6461C138.612 17.8957 138.527 18.1477 138.44 18.399C138.42 18.4441 138.424 18.4931 138.453 18.5359C138.47 18.5598 138.503 18.5734 138.533 18.5559C138.597 18.5207 138.655 18.4796 138.704 18.4335C138.901 18.2311 139.093 18.0262 139.286 17.8208C140.289 16.7584 141.242 15.6718 142.163 14.5716C142.283 14.4309 142.389 14.2846 142.482 14.1337C142.663 13.8309 142.83 13.5235 143.001 13.2173C143.015 13.1849 143.026 13.1518 143.033 13.1181ZM70.296 21.2916C70.296 21.1768 70.311 21.0354 70.2588 20.8965C70.2426 20.8533 70.1523 20.8276 70.0992 20.8528C70.0844 20.8575 70.0701 20.8629 70.0561 20.8687C69.5763 21.1552 69.1844 21.5102 68.9052 21.9114C68.8052 22.0599 68.7331 22.2172 68.6907 22.3794C68.6569 22.495 68.6556 22.6144 68.687 22.7304C68.7425 22.928 68.8346 23.1162 68.9999 23.2818C69.0302 23.3095 69.063 23.3356 69.0983 23.3601C69.1307 23.3847 69.2458 23.3886 69.2835 23.3663C69.3224 23.345 69.359 23.3217 69.3929 23.2965C69.6119 23.1176 69.7659 22.9105 69.8886 22.6911C70.1413 22.2462 70.2794 21.772 70.296 21.2916ZM30.8149 14.2012C30.8038 14.1488 30.7889 14.0968 30.7704 14.0455C30.763 14.0278 30.7259 14.0101 30.6966 14.0042C30.6655 14.0012 30.6339 14.0041 30.6048 14.0124C30.5913 14.0152 30.5802 14.0278 30.5711 14.0375C30.2666 14.3584 30.1284 14.7186 30.0959 15.1018C30.0835 15.2675 30.1169 15.4333 30.1943 15.5896C30.2295 15.6554 30.2788 15.7168 30.3404 15.7715C30.365 15.794 30.4235 15.8035 30.4678 15.8057C30.4885 15.8057 30.5244 15.7784 30.532 15.7591C30.5649 15.6805 30.5904 15.6004 30.6083 15.5193C30.6304 15.4025 30.6348 15.284 30.6548 15.1669C30.7 14.8976 30.7507 14.6288 30.7977 14.3596C30.8085 14.3129 30.8097 14.2656 30.8159 14.2012H30.8149ZM169.855 5.7867C169.852 5.8024 169.852 5.81827 169.855 5.83397C169.859 5.84502 169.869 5.85452 169.883 5.86071C169.89 5.86268 169.897 5.86349 169.905 5.86306C169.912 5.86263 169.919 5.86098 169.926 5.85823C170.072 5.77412 170.13 5.64786 170.212 5.53453C170.692 4.86464 171.111 4.17456 171.498 3.47457C171.564 3.35433 171.624 3.23197 171.681 3.10943C171.705 3.05334 171.725 2.99628 171.74 2.93855C171.743 2.93319 171.744 2.92744 171.743 2.92178C171.742 2.91612 171.739 2.91072 171.734 2.90604C171.73 2.90136 171.723 2.89755 171.716 2.89491C171.709 2.89228 171.702 2.89091 171.694 2.89091C171.686 2.89042 171.678 2.89119 171.67 2.89318C171.663 2.89517 171.656 2.89833 171.65 2.90242C171.591 2.97184 171.527 3.04019 171.478 3.11333C170.962 3.87477 170.492 4.65215 170.042 5.43484C169.973 5.55437 169.914 5.67655 169.855 5.7867ZM84.1552 14.2366C84.1234 14.2401 84.0922 14.246 84.0622 14.2543C83.7139 14.3839 83.3791 14.5289 83.0723 14.7057C83.0486 14.7207 83.0287 14.7387 83.0135 14.7588C83.0114 14.7637 83.011 14.769 83.0122 14.7741C83.0135 14.7792 83.0164 14.784 83.0207 14.7882C83.0288 14.7958 83.0497 14.8048 83.0591 14.8022C83.3205 14.728 84.0378 14.3982 84.2034 14.2761C84.209 14.272 84.2034 14.2543 84.1955 14.2479C84.1877 14.2415 84.169 14.2406 84.1552 14.2366Z" fill="#2E3192"/>
</svg>
