<svg width="305" height="39" viewBox="0 0 305 39" fill="none" xmlns="http://www.w3.org/2000/svg">
<path d="M305 15.8846C303.251 16.9846 301.508 18.0889 299.751 19.1829C298.52 19.9499 297.272 20.7003 296.034 21.4626C294.681 22.2961 293.367 23.1618 292.068 24.04C290.643 25.0042 289.269 26.0085 287.89 27.0092C286.573 27.9651 285.229 28.9 283.857 29.814C282.757 30.5485 281.538 31.1803 280.229 31.6953C279.793 31.8664 279.34 32.0128 278.874 32.1333C277.94 32.3746 276.952 32.4827 275.963 32.4519C275.427 32.4394 274.895 32.3742 274.382 32.258C273.384 32.0275 272.586 31.5948 271.999 30.9525C271.662 30.5842 271.38 30.1897 271.159 29.7759C270.804 29.1113 270.541 28.422 270.374 27.7183C270.245 27.1868 270.163 26.6519 270.091 26.1147C269.949 25.0528 269.987 23.9907 270.023 22.9277C270.135 22.3297 270.112 21.7243 270.213 21.1249C270.299 20.6217 270.312 20.1116 270.399 19.6087C270.5 19.0252 270.516 18.438 270.584 17.8533C270.629 17.4592 270.608 17.0601 270.595 16.6626C270.586 16.4095 270.538 16.1568 270.507 15.9042C270.499 15.873 270.489 15.8422 270.477 15.812C270.459 15.7575 270.34 15.7103 270.269 15.7363C270.154 15.7777 270.033 15.8146 269.933 15.872C269.105 16.3511 268.269 16.8246 267.513 17.3671C266.667 17.9757 265.83 18.5902 265.037 19.2381C263.782 20.264 262.625 21.3462 261.534 22.468C260.052 23.9879 258.712 25.5806 257.523 27.2349C256.713 28.3558 255.995 29.512 255.374 30.697C255.297 30.8449 255.216 30.9918 255.132 31.1376C255.089 31.2109 255.027 31.2769 254.948 31.3313C254.869 31.3857 254.775 31.4272 254.673 31.4534C254.063 31.6241 253.454 31.606 252.85 31.4357C252.79 31.4181 252.733 31.3951 252.681 31.3674C252.626 31.3417 252.579 31.3077 252.544 31.2677C252.509 31.2278 252.485 31.1827 252.475 31.1354C252.458 31.0571 252.451 30.9778 252.453 30.8985C252.469 30.6603 252.481 30.4222 252.518 30.1862C252.573 29.8238 252.651 29.4632 252.714 29.1015C252.905 28.0155 253.16 26.9377 253.462 25.8658C253.637 25.2448 253.824 24.6254 254.002 24.0048C254.027 23.9116 254.043 23.8172 254.049 23.7223C254.047 23.7074 254.041 23.6928 254.031 23.6796C254.021 23.6664 254.008 23.6548 253.992 23.6454C253.954 23.6216 253.907 23.6307 253.877 23.6611C253.79 23.7509 253.7 23.8393 253.62 23.9329C252.957 24.712 252.308 25.4977 251.633 26.2712C250.678 27.3666 249.655 28.4244 248.524 29.4242C247.907 29.9743 247.24 30.4924 246.527 30.9749C246.035 31.307 245.505 31.6066 244.943 31.8703C244.225 32.2054 243.448 32.4312 242.604 32.5028C241.286 32.6148 240.084 32.404 239.08 31.7277C238.648 31.4369 238.314 31.0864 238.031 30.7094C237.779 30.376 237.591 30.0212 237.422 29.6616C237.377 29.5732 237.326 29.4865 237.269 29.402C237.247 29.3675 237.14 29.3518 237.097 29.3746C237.026 29.4098 236.958 29.4481 236.894 29.4892C236.456 29.7933 236.017 30.0974 235.584 30.4051C234.98 30.8337 234.386 31.2702 233.777 31.6941C233.105 32.1614 232.447 32.6412 231.712 33.0563C231.286 33.2981 230.842 33.5222 230.383 33.7276C229.883 33.9498 229.353 34.1177 228.775 34.1948C228.151 34.278 227.534 34.2677 226.927 34.1365C226.327 34.0067 225.861 33.7355 225.523 33.3466C225.266 33.0525 225.07 32.7314 224.943 32.394C224.795 31.9961 224.707 31.5903 224.638 31.1795C224.522 30.4829 224.537 29.7854 224.538 29.0874C224.538 28.8017 224.543 28.5159 224.603 28.2325C224.619 28.1537 224.627 28.0741 224.627 27.9944C224.636 27.4538 224.732 26.9182 224.807 26.3821C224.883 25.8461 224.989 25.3105 225.101 24.779C225.291 23.8697 225.496 22.9622 225.696 22.0542C225.838 21.4112 225.986 20.771 226.123 20.1288C226.231 19.6287 226.331 19.1255 226.43 18.6233C226.441 18.5442 226.444 18.4646 226.439 18.3851C226.442 18.3536 226.435 18.3222 226.419 18.2929C226.403 18.2636 226.379 18.2371 226.348 18.2153C226.307 18.1875 226.183 18.2029 226.11 18.2501C225.867 18.4058 225.618 18.5578 225.386 18.7223C224.629 19.2624 223.914 19.8339 223.244 20.4341C221.096 22.343 219.226 24.3925 217.588 26.5596C216.436 28.0836 215.398 29.6534 214.479 31.2619C214.053 32.0077 213.671 32.766 213.306 33.5288C213.195 33.7523 213.104 33.9811 213.035 34.2137C212.799 35.0529 212.503 35.8806 212.23 36.7141C212.088 37.1456 211.954 37.5788 211.812 38.0103C211.766 38.1489 211.715 38.2868 211.653 38.4221C211.543 38.6657 211.31 38.8238 210.983 38.8984C210.393 39.0332 209.799 39.037 209.21 38.8912C209.108 38.8654 209.011 38.83 208.922 38.786C208.793 38.7229 208.692 38.635 208.693 38.5142C208.693 38.3237 208.689 38.1332 208.723 37.9449C208.837 37.3162 208.951 36.687 209.095 36.0616C209.264 35.3267 209.449 34.594 209.651 33.8633C210.058 32.3869 210.472 30.9115 210.895 29.4373C211.254 28.1799 211.63 26.9253 211.988 25.6679C212.367 24.3327 212.752 22.9986 213.183 21.6719C213.223 21.5491 213.252 21.4238 213.277 21.2985C213.282 21.2726 213.253 21.2395 213.23 21.2149C213.207 21.1904 213.095 21.2016 213.056 21.2302C213.026 21.2528 212.994 21.2738 212.966 21.2978C212.896 21.3581 212.826 21.4186 212.76 21.4807C211.724 22.4542 210.644 23.4006 209.494 24.301C208.181 25.3293 206.805 26.3083 205.253 27.143C204.488 27.5545 203.695 27.9303 202.838 28.2325C202.139 28.4784 201.389 28.6363 200.62 28.6997C199.936 28.761 199.242 28.7274 198.575 28.6007C198.368 28.5593 198.165 28.5074 197.967 28.4454C196.946 28.1327 196.382 27.5528 196.192 26.7613C196.055 26.1945 196.051 25.6289 196.15 25.0554C196.254 24.4574 196.42 23.8662 196.648 23.2873C196.851 22.7693 197.064 22.2535 197.273 21.7367C197.303 21.6612 197.339 21.5864 197.301 21.5057C197.282 21.4667 197.25 21.45 197.201 21.4688C197.143 21.4869 197.089 21.5123 197.043 21.5438C196.928 21.6391 196.819 21.7365 196.713 21.836C194.867 23.571 193.254 25.4358 191.9 27.4035C191.578 27.8698 191.238 28.3289 190.898 28.7886C190.785 28.9418 190.659 29.0898 190.521 29.2317C190.135 29.6294 189.616 29.8573 188.947 29.8747C188.626 29.8858 188.304 29.8841 187.983 29.8695C187.319 29.8335 186.804 29.5968 186.441 29.186C186.327 29.0519 186.227 28.9113 186.142 28.7657C185.839 28.2571 185.621 27.7227 185.495 27.1747C185.287 26.3146 185.209 25.4402 185.262 24.5675C185.271 24.426 185.297 24.2834 185.239 24.1436C185.234 24.1298 185.217 24.1091 185.202 24.1079C185.164 24.1043 185.106 24.0979 185.086 24.1134C184.982 24.1921 184.885 24.276 184.797 24.3644C184.281 24.8919 183.768 25.4206 183.257 25.9504C182.817 26.4009 182.343 26.8325 181.836 27.2428C181.709 27.3505 181.569 27.4496 181.417 27.5388C181.053 27.7476 180.641 27.8796 180.173 27.8827C179.873 27.8846 179.569 27.8903 179.275 27.8555C178.585 27.7743 178.233 27.5921 178.17 26.9782C178.114 26.4202 178.188 25.8677 178.327 25.3205C178.567 24.3849 178.905 23.4643 179.337 22.5671C179.408 22.418 179.501 22.273 179.505 22.1113C179.505 22.0908 179.46 22.0668 179.43 22.0503C179.42 22.0474 179.41 22.0462 179.399 22.0469C179.389 22.0477 179.379 22.0503 179.37 22.0546C179.276 22.1185 179.173 22.1775 179.096 22.2511C178.701 22.6269 178.304 23.0024 177.922 23.3856C175.855 25.4598 174.045 27.6517 172.445 29.9404C171.508 31.2807 170.668 32.6534 169.867 34.0398C169.463 34.7404 169.07 35.4448 168.676 36.1483C168.38 36.6763 168.047 37.1914 167.696 37.7005C167.536 37.9254 167.349 38.1392 167.138 38.3394C166.794 38.6728 166.324 38.8503 165.773 38.911C165.391 38.9545 165.001 38.9563 164.618 38.9162C163.995 38.8503 163.496 38.6114 163.083 38.2713C162.707 37.9618 162.424 37.6045 162.195 37.2271C161.889 36.7197 161.635 36.1957 161.436 35.6599C161.124 34.8345 160.897 33.9928 160.756 33.142C160.688 32.7169 160.6 32.2928 160.555 31.8663C160.509 31.4398 160.505 31.0102 160.481 30.582C160.47 30.4079 160.448 30.2341 160.44 30.0598C160.429 29.8216 160.39 29.5811 160.428 29.3472C160.494 28.9355 160.475 28.523 160.5 28.1113C160.524 27.6995 160.554 27.2878 160.598 26.8763C160.651 26.3859 160.721 25.8968 160.781 25.4072C160.822 25.0757 160.878 24.7447 160.942 24.4148C161.142 23.3785 161.361 22.343 161.623 21.3152C161.631 21.2842 161.645 21.25 161.635 21.2214C161.621 21.1781 161.594 21.1379 161.555 21.1042C161.538 21.0911 161.467 21.0999 161.436 21.1159C161.333 21.1718 161.233 21.2316 161.138 21.2952C160.45 21.7512 159.723 22.1718 158.991 22.5881C157.613 23.3723 156.203 24.1241 154.785 24.8676C152.28 26.1802 149.739 27.4524 147.16 28.6842C145.035 29.7042 142.885 30.6918 140.693 31.631C139.077 32.3233 137.44 32.9856 135.74 33.56C135.155 33.7599 134.557 33.9365 133.947 34.0889C133.581 34.177 133.206 34.2452 132.826 34.293C132.614 34.3206 132.398 34.317 132.188 34.2822C131.455 34.166 130.9 33.8631 130.497 33.4033C130.274 33.1489 130.118 32.8703 129.973 32.5881C129.697 32.0523 129.522 31.4957 129.365 30.9366C129.189 30.3148 129.079 29.6849 128.995 29.0536C128.944 28.6752 128.935 28.2916 128.931 27.912C128.926 27.3404 128.947 26.7689 128.949 26.1973C128.951 25.688 129.046 25.1843 129.128 24.6809C129.246 23.9564 129.412 23.2365 129.617 22.5226C129.823 21.8086 130.044 21.0975 130.306 20.3936C130.357 20.2562 130.416 20.1188 130.377 19.9745C130.372 19.9537 130.316 19.9292 130.28 19.9268C130.238 19.9273 130.197 19.9382 130.164 19.9578C130.044 20.0247 129.923 20.0909 129.813 20.1659C129.105 20.6508 128.374 21.1206 127.697 21.6286C126.748 22.3402 125.831 23.0763 124.96 23.8419C123.632 25.0088 122.361 26.2073 121.195 27.4652C119.87 28.8941 118.651 30.3684 117.618 31.9254C117.287 32.4254 117.011 32.9417 116.857 33.4887C116.793 33.7216 116.739 33.9567 116.69 34.1917C116.622 34.5235 116.479 34.839 116.329 35.1531C116.155 35.521 115.811 35.7663 115.309 35.8899C114.656 36.0529 113.958 36.0954 113.277 36.0138C113.003 35.9816 112.728 35.9457 112.468 35.8633C111.837 35.663 111.747 35.5127 111.872 35.0571C111.991 34.6218 112.11 34.1863 112.235 33.7521C112.479 32.9144 112.686 32.072 112.877 31.2278C113.112 30.18 113.356 29.1322 113.597 28.0844C113.809 27.1618 114.022 26.2393 114.236 25.3169C114.268 25.1764 114.304 25.0352 114.264 24.8916C114.255 24.8583 114.146 24.8161 114.108 24.8359C114.038 24.8721 113.962 24.9035 113.903 24.948C112.668 25.8979 111.341 26.7798 109.932 27.5867C109.268 27.9646 108.585 28.3223 107.861 28.6345C107.287 28.884 106.683 29.0922 106.055 29.2563C105.231 29.4706 104.381 29.5335 103.518 29.4727C103.241 29.4497 102.968 29.405 102.703 29.3394C102.148 29.2084 101.734 28.9391 101.445 28.5671C101.36 28.4569 101.288 28.3414 101.229 28.222C100.968 27.6938 100.843 27.149 100.913 26.5862C100.993 25.9521 101.163 25.331 101.462 24.7318C101.559 24.5382 101.665 24.3475 101.76 24.1536C101.784 24.0931 101.801 24.0312 101.81 23.9686C101.817 23.9371 101.713 23.8759 101.673 23.8883C101.515 23.9359 101.353 23.9781 101.201 24.0341C99.8537 24.5262 98.5077 25.0194 97.1626 25.5136C96.6819 25.6899 96.1992 25.863 95.7194 26.0406C95.5278 26.1121 95.3385 26.1869 95.1537 26.2674C94.9927 26.3374 94.9109 26.4431 94.9347 26.586C94.974 26.8222 95.0052 27.0592 95.0519 27.2945C95.1717 27.8955 95.1578 28.4935 95.05 29.0965C94.9514 29.6474 94.7598 30.187 94.4797 30.7027C94.3512 30.9385 94.1893 31.1635 93.9967 31.3741C93.6139 31.8005 93.0644 32.1306 92.4215 32.3202C92.0029 32.4466 91.5675 32.53 91.1109 32.5438C90.5735 32.5602 90.0419 32.5607 89.5148 32.4509C88.6157 32.264 87.6951 31.637 87.6101 30.6611C87.5821 30.3386 87.6597 30.0297 87.8111 29.7283C87.9529 29.4451 88.1453 29.1773 88.3833 28.9319C88.7973 28.5033 89.2668 28.1144 89.8171 27.7784C90.2949 27.483 90.7946 27.2078 91.3141 26.9539C91.9076 26.6681 91.8258 26.575 91.7327 26.2042C91.4959 25.2685 91.1875 24.3435 90.8089 23.4337C90.7735 23.3589 90.7318 23.2857 90.6843 23.2146C90.6411 23.1432 90.4837 23.1194 90.4125 23.1744C90.2666 23.2903 90.1208 23.4068 89.9865 23.5299C89.271 24.1846 88.5996 24.8635 87.9482 25.5541C86.9652 26.5953 85.9901 27.6405 85.0074 28.6816C84.7372 28.9674 84.4539 29.2475 84.1702 29.5273C83.7967 29.8976 83.3607 30.2264 82.9105 30.5448C82.5071 30.8306 82.0157 30.9797 81.4641 31.0092C81.186 31.0253 80.9065 31.0224 80.6291 31.0006C80.0325 30.9504 79.5865 30.7306 79.3311 30.3165C79.1434 30.0133 78.998 29.6966 78.8974 29.3715C78.7364 28.8455 78.6099 28.3149 78.5838 27.7724C78.551 27.1697 78.5593 26.5661 78.6086 25.964C78.6408 25.616 78.701 25.2693 78.7583 24.923C78.8807 24.1831 79.0108 23.4437 79.1354 22.704C79.2014 22.3104 79.2774 21.9182 79.3215 21.5224C79.3585 21.1909 79.3566 20.8556 79.3698 20.5236C79.3669 20.492 79.3606 20.4606 79.3508 20.4298C79.3373 20.3557 79.193 20.3048 79.0993 20.345C78.9858 20.3897 78.8768 20.4404 78.7731 20.4967C78.4189 20.7039 78.0647 20.9094 77.7257 21.1285C77.1286 21.5162 76.5718 21.9366 76.0599 22.3861C74.4319 23.8081 73.0048 25.3324 71.814 26.9758C71.378 27.5774 70.9724 28.1901 70.5972 28.814C70.4133 29.1189 70.2533 29.4294 70.1499 29.7556C70.1063 29.8947 70.049 30.0313 69.9786 30.1643C69.9455 30.2319 69.8923 30.2931 69.8227 30.3434C69.7532 30.3937 69.6692 30.4317 69.5771 30.4546C69.4774 30.4834 69.3745 30.5057 69.2696 30.5213C68.9724 30.5564 68.6701 30.5611 68.3712 30.5353C68.1787 30.5194 67.9926 30.475 67.8238 30.4048C67.7024 30.3543 67.6225 30.2736 67.6251 30.175C67.6268 29.969 67.6452 29.7633 67.6802 29.5589C67.8438 28.695 68.0167 27.8319 68.1886 26.9687C68.5386 25.2102 68.9791 23.4644 69.5333 21.7343C69.5826 21.581 69.6096 21.4233 69.6383 21.2666C69.6367 21.2514 69.6303 21.2366 69.6194 21.2236C69.6085 21.2106 69.5936 21.1997 69.5758 21.1918C69.5564 21.1859 69.5354 21.1833 69.5145 21.184C69.4935 21.1847 69.473 21.1889 69.4544 21.1961C69.3631 21.2376 69.2774 21.2855 69.1984 21.339C68.4778 21.8385 67.7896 22.3614 67.1341 22.9079C65.3357 24.4082 63.7511 26.0275 62.3147 27.7257C61.6887 28.4659 61.0911 29.2194 60.4748 29.9643C60.0819 30.4377 59.6768 30.9056 59.2743 31.3745C59.1935 31.4682 59.1055 31.5584 59.0106 31.6446C58.8104 31.8345 58.5234 31.9639 58.2034 32.0085C57.7329 32.0749 57.2663 32.0842 56.8068 31.9649C56.7464 31.9489 56.6871 31.9304 56.6294 31.9096C56.4455 31.8441 56.3138 31.7429 56.2672 31.5939C56.2286 31.4868 56.2062 31.3769 56.2005 31.2662C56.196 30.7268 56.1683 30.1867 56.2649 29.6494C56.276 29.5863 56.2817 29.5226 56.282 29.4589C56.2903 28.7921 56.4001 28.1291 56.4607 27.4642C56.5009 27.0215 56.5859 26.5812 56.6565 26.1402C56.7044 25.8408 56.7656 25.5429 56.8136 25.2436C56.8313 25.1338 56.8284 25.0221 56.8329 24.9102C56.8349 24.8597 56.784 24.808 56.7363 24.8028C56.6606 24.7944 56.6136 24.8297 56.5753 24.8657C56.5078 24.9273 56.4451 24.9917 56.3876 25.0585C56.0517 25.446 55.7191 25.8351 55.3836 26.2228C53.961 27.8672 52.5574 29.5208 51.0858 31.1419C50.8466 31.4055 50.6028 31.6674 50.3533 31.9251C50.2036 32.0797 50.0403 32.2276 49.8741 32.3728C49.5241 32.6784 49.0588 32.8348 48.5372 32.8967C48.1315 32.9444 47.7222 32.9363 47.3326 32.8184C47.2134 32.7832 47.0999 32.738 46.9945 32.6838C46.8325 32.6026 46.7159 32.4807 46.6664 32.3407C46.5987 32.1409 46.5311 31.9411 46.5176 31.7327C46.4716 31.0183 46.4648 30.3038 46.5569 29.5918C46.6448 28.9131 46.7987 28.2394 46.97 27.5676C47.4405 25.7263 48.0893 23.9176 48.7909 22.1185C49.368 20.639 50.0064 19.1744 50.7062 17.7247C50.778 17.5757 50.8376 17.423 50.8894 17.2697C50.9026 17.2308 50.8717 17.1799 50.8466 17.1394C50.8257 17.1058 50.7313 17.1096 50.6737 17.1394C50.6212 17.167 50.5674 17.1935 50.5172 17.223C50.3494 17.322 50.1833 17.4223 50.0161 17.5221C49.0302 18.1095 48.044 18.6969 47.0576 19.2843C46.3366 19.7108 45.5854 20.1071 44.8142 20.4827C43.9706 20.8937 43.1037 21.2733 42.1793 21.5781C42.1403 21.591 42.102 21.6053 42.0627 21.6184C41.8322 21.6948 41.6908 21.8286 41.6161 22.0032C41.5643 22.1242 41.5195 22.2466 41.4702 22.3683C40.9077 23.77 40.226 25.1388 39.3843 26.4624C38.6163 27.67 37.7653 28.8438 36.7883 29.9676C36.173 30.6755 35.4968 31.3535 34.7639 31.9973C34.1405 32.545 33.4469 33.042 32.7163 33.5107C32.3412 33.7514 31.9345 33.955 31.4534 34.0677C31.2473 34.1153 31.0413 34.1574 30.8249 34.1615C30.5244 34.1672 30.224 34.1727 29.9233 34.1713C29.1933 34.1679 28.6572 33.9076 28.2704 33.4671C28.1571 33.3324 28.0608 33.1903 27.9829 33.0425C27.7781 32.6731 27.6696 32.2842 27.6 31.8901C27.4944 31.2912 27.439 30.6896 27.4732 30.0855C27.488 29.8164 27.5173 29.5475 27.5411 29.2786C27.5482 29.1993 27.5617 29.1205 27.5685 29.0405C27.6329 28.2785 27.7829 27.5266 27.9375 26.7734C28.1114 25.9259 28.3374 25.0864 28.5905 24.2491C28.6182 24.1579 28.651 24.0636 28.5844 23.9714C28.5615 23.9398 28.52 23.9238 28.4788 23.944C28.4073 23.9769 28.3434 24.018 28.2894 24.0657C27.9932 24.3579 27.6979 24.6506 27.4123 24.9483C26.2331 26.1785 25.0688 27.4164 23.9604 28.6823C22.3849 30.4817 20.8927 32.3173 19.5213 34.2072C19.1868 34.6685 18.8129 35.1145 18.4536 35.5646C18.3662 35.674 18.2682 35.7785 18.1602 35.8773C17.7738 36.2283 17.2757 36.4231 16.6629 36.4488C16.3409 36.4622 16.0225 36.4477 15.7124 36.3617C15.3176 36.2521 15.0684 36.0557 14.9863 35.7482C14.9077 35.4527 14.8539 35.1548 14.8063 34.855C14.6955 34.1582 14.7016 33.4597 14.7316 32.7627C14.7573 32.1609 14.8256 31.5593 14.9248 30.9604C14.984 30.5982 15.0262 30.2345 15.0748 29.8714C15.1321 29.4453 15.1791 29.0181 15.2474 28.593C15.3308 28.0732 15.4194 27.5536 15.5282 27.0363C15.6667 26.3783 15.8151 25.7213 15.979 25.0662C16.1558 24.3641 16.3654 23.6678 16.5724 22.9705C16.9627 21.6522 17.4676 20.3564 17.977 19.0614C18.0366 18.9097 18.0817 18.7549 18.1248 18.6002C18.1313 18.5763 18.0991 18.5366 18.0691 18.5223C18.051 18.5151 18.0309 18.511 18.0104 18.5104C17.9899 18.5098 17.9694 18.5126 17.9506 18.5187C17.8401 18.5665 17.7339 18.6195 17.6328 18.6775C16.4661 19.3524 15.3004 20.0281 14.1359 20.7046C11.4632 22.2492 8.79708 23.7985 6.11803 25.3346C4.30258 26.3748 2.46814 27.3969 0.639494 28.4242C0.435345 28.539 0.213487 28.6364 0 28.7419V27.5988C0.134597 27.5971 0.250195 27.5562 0.354201 27.4995C0.562536 27.3873 0.769906 27.2745 0.974699 27.1587C3.55071 25.7046 6.1103 24.2342 8.65346 22.7474C11.0245 21.3562 13.3798 19.9506 15.7195 18.5306C16.4346 18.0991 17.1636 17.6805 17.8901 17.2592C18.0758 17.1514 18.2693 17.0512 18.4697 16.9589C19.1076 16.6653 19.7879 16.595 20.5063 16.77C20.6079 16.7951 20.7052 16.8289 20.7961 16.8708C20.97 16.9503 21.0827 17.0672 21.0859 17.2208C21.0901 17.379 21.0921 17.5399 21.057 17.6952C20.9331 18.2426 20.7999 18.789 20.6574 19.3343C20.3782 20.4093 20.0893 21.4829 19.8076 22.5576C19.5715 23.4608 19.337 24.3644 19.1043 25.2683C18.81 26.4057 18.5199 27.544 18.2919 28.6897C18.1699 29.3015 18.083 29.9173 17.9838 30.5315C17.9123 30.9725 17.846 31.4126 17.7796 31.8553C17.7632 31.9656 17.7571 32.0768 17.7436 32.1887C17.7168 32.4097 17.6866 32.6307 17.6615 32.852C17.6293 33.1199 17.5755 33.3875 17.6293 33.6571C17.6317 33.665 17.6368 33.6722 17.644 33.6782C17.6513 33.6842 17.6605 33.6888 17.6708 33.6914C17.7085 33.6955 17.7587 33.7012 17.7851 33.6871C17.8365 33.6592 17.8802 33.6243 17.9139 33.5842C18.0491 33.4223 18.1805 33.2585 18.3103 33.0939C19.2077 31.9556 20.1457 30.8363 21.1117 29.7292C23.3123 27.2068 25.6564 24.7592 28.1114 22.3692C28.5135 21.9772 28.9231 21.5895 29.3321 21.2023C29.4227 21.1137 29.5214 21.0297 29.6273 20.9508C29.8558 20.7795 30.1604 20.6751 30.4848 20.657C30.7417 20.6393 31.0005 20.6453 31.2554 20.6748C31.3603 20.6901 31.4628 20.713 31.5616 20.7432C31.7841 20.8075 31.9094 20.9311 31.9049 21.108C31.903 21.2506 31.8839 21.3928 31.8475 21.5329C31.6817 22.1392 31.513 22.7452 31.3323 23.3492C31.0355 24.3405 30.7527 25.3346 30.5251 26.3357C30.3535 27.0863 30.2066 27.8398 30.0785 28.5959C29.9983 29.0688 29.9497 29.5432 29.8943 30.0169C29.8061 30.777 29.8251 31.541 29.9938 32.2959C30.0427 32.5145 30.1155 32.7307 30.187 32.9465C30.2187 33.0387 30.2601 33.1289 30.311 33.2163C30.4076 33.3916 30.557 33.424 30.7637 33.3116C30.9195 33.2277 31.0805 33.1449 31.2171 33.0456C32.1019 32.3981 32.98 31.7463 33.7287 31.0049C34.5256 30.2153 35.2743 29.4027 35.946 28.5521C37.2788 26.8655 38.3839 25.0861 39.2452 23.2394C39.385 22.9393 39.5028 22.6338 39.6265 22.3302C39.648 22.269 39.6637 22.2067 39.6735 22.1439C39.6838 22.0963 39.6123 22.0011 39.5537 21.988C39.3901 21.9503 39.2246 21.9165 39.0613 21.8779C38.9175 21.8467 38.776 21.8101 38.6373 21.7681C38.1572 21.6122 37.8426 21.3395 37.6796 20.9763C37.5431 20.6722 37.4823 20.3572 37.5334 20.0373C37.5978 19.6232 37.7588 19.2308 38.0412 18.8671C38.4019 18.4039 38.9312 18.0965 39.619 17.9496C40.102 17.8469 40.5992 17.8519 41.0848 17.9386C41.5813 18.0277 41.912 18.2677 42.0614 18.6292C42.1365 18.8107 42.2015 18.9967 42.2015 19.1896C42.2015 19.523 42.224 19.8563 42.1326 20.1862C42.1004 20.3088 42.1068 20.4379 42.1004 20.5641C42.0978 20.6229 42.2112 20.6832 42.2817 20.6625C42.3802 20.6332 42.4839 20.6079 42.5715 20.5658C43.2216 20.2574 43.8772 19.9542 44.5141 19.6315C45.3835 19.1917 46.212 18.7135 47.0257 18.2206C48.1881 17.5166 49.3473 16.8096 50.5117 16.1073C50.8107 15.9268 51.118 15.7538 51.4336 15.5884C52.065 15.2576 52.7538 15.259 53.4651 15.4153C53.5064 15.424 53.5463 15.4359 53.5842 15.4507C53.7852 15.5312 53.9278 15.6496 53.9362 15.823C53.9492 15.997 53.94 16.1717 53.9088 16.3445C53.8393 16.6731 53.7623 17.0017 53.6387 17.323C53.2858 18.2386 52.9341 19.1544 52.5838 20.0704C51.8725 21.9165 51.1544 23.7616 50.5381 25.6265C50.192 26.6743 49.8706 27.7269 49.6043 28.7878C49.5026 29.1927 49.4169 29.6011 49.3277 30.0083C49.3192 30.0555 49.3237 30.1034 49.3409 30.1493C49.3472 30.1633 49.3577 30.176 49.3715 30.1867C49.3853 30.1973 49.4021 30.2055 49.4208 30.2107C49.4413 30.2134 49.4623 30.213 49.4826 30.2095C49.5029 30.206 49.5221 30.1995 49.5389 30.1905C49.5893 30.1613 49.6333 30.1265 49.6694 30.0874C49.7801 29.9704 49.887 29.8514 49.9933 29.7321C51.7673 27.7452 53.541 25.7582 55.3144 23.7712C55.9648 23.0424 56.614 22.3133 57.2618 21.5836C57.7603 21.0281 58.2113 20.45 58.612 19.8528C58.65 19.7959 58.6905 19.7399 58.7347 19.6861C58.8264 19.5774 58.9614 19.4925 59.1211 19.4429C59.199 19.4161 59.2806 19.3956 59.3645 19.3817C59.9209 19.2967 60.4725 19.2917 61.0096 19.451C61.088 19.4766 61.1612 19.51 61.2273 19.5503C61.3145 19.6003 61.3783 19.6694 61.378 19.752C61.3826 19.8785 61.3718 20.005 61.3458 20.13C61.2302 20.5979 61.1178 21.0671 60.9767 21.5312C60.6432 22.6306 60.3503 23.7358 60.0983 24.8468C59.8611 25.8947 59.6272 26.9433 59.3967 27.9927C59.3858 28.0399 59.3838 28.088 59.3909 28.1356C59.3954 28.1644 59.4266 28.2149 59.4447 28.2146C59.5036 28.2146 59.5818 28.2073 59.6166 28.1787C59.699 28.1055 59.7743 28.0282 59.842 27.9472C60.3199 27.4197 60.7852 26.8858 61.2769 26.3657C62.6196 24.9483 64.0839 23.596 65.6609 22.3173C66.5 21.636 67.3723 20.9801 68.3139 20.376C68.557 20.2202 68.8101 20.0728 69.0625 19.9252C69.4861 19.6777 69.9939 19.5218 70.5299 19.4746C70.9366 19.4351 71.6801 19.5087 72.041 19.6392C72.3952 19.7675 72.6094 19.974 72.6268 20.2726C72.6451 20.6376 72.6216 21.003 72.5562 21.365C72.402 22.263 72.1505 23.1479 71.9023 24.0333C71.8588 24.1884 71.7983 24.3429 71.8478 24.503C71.8506 24.5106 71.8557 24.5176 71.8627 24.5235C71.8698 24.5294 71.8786 24.534 71.8884 24.537C71.9261 24.5415 71.975 24.548 72.0024 24.5346C72.055 24.5074 72.1012 24.474 72.1389 24.4356C72.2941 24.2836 72.4445 24.1288 72.5984 23.9762C73.2656 23.3139 73.9508 22.6626 74.6953 22.0473C75.3103 21.5381 75.9295 21.0313 76.6395 20.5917C76.9847 20.3777 77.335 20.1682 77.6902 19.963C77.859 19.8656 78.0444 19.7842 78.2228 19.6958C78.957 19.3327 79.7655 19.2408 80.6246 19.3386C80.7305 19.351 80.8349 19.3694 80.937 19.3936C81.4445 19.5127 81.7967 19.7551 81.9284 20.1388C82.0231 20.4148 82.1084 20.6977 82.1319 20.9804C82.2008 21.8046 82.2082 22.6295 82.0508 23.4511C81.912 24.1734 81.7874 24.8973 81.6557 25.6203C81.4403 26.8048 81.4251 27.9936 81.5188 29.1846C81.5285 29.3106 81.5369 29.4377 81.6154 29.5558C81.6534 29.6132 81.7687 29.6432 81.8286 29.5982C81.9513 29.5102 82.0678 29.4176 82.1776 29.3208C83.0966 28.4618 84.0131 27.6005 84.8876 26.717C85.5477 26.0516 86.221 25.3931 86.8937 24.7344C87.8384 23.809 88.8444 22.9208 89.8944 22.0599C90.0383 21.9408 90.1784 21.8217 90.3227 21.7043C90.4842 21.5757 90.6052 21.4223 90.6769 21.255C90.9747 20.5453 91.5817 20.0045 92.3548 19.5499C92.9644 19.1926 93.638 18.9145 94.3422 18.6764C95.1238 18.4131 95.9413 18.2127 96.7807 18.0784C97.5458 17.9543 98.3157 17.961 99.0869 18.0088C99.3191 18.0234 99.5474 18.082 99.7744 18.1279C99.8549 18.1444 99.9283 18.1829 100.001 18.2158C100.141 18.2789 100.217 18.3711 100.198 18.4939C100.181 18.5963 100.095 18.6668 99.9747 18.7126C99.6655 18.83 99.1191 18.9014 98.7871 18.869C98.5743 18.8483 98.3627 18.8214 98.1496 18.8045C97.9141 18.7845 97.6755 18.8019 97.4499 18.8557C96.4813 19.0907 95.5896 19.4272 94.8165 19.9273C94.5084 20.1256 94.2388 20.3545 94.0154 20.6074C93.6804 20.9794 93.4892 21.4119 93.4625 21.8584C93.4384 22.2435 93.4863 22.6205 93.6431 22.987C93.9542 23.713 94.2765 24.4363 94.5963 25.1602C94.6259 25.2195 94.661 25.2773 94.7012 25.3331C94.7289 25.3757 94.8622 25.4086 94.9289 25.3896C95.0284 25.3603 95.1298 25.3331 95.2255 25.2984C95.5335 25.1864 95.8405 25.0728 96.1464 24.9576C97.236 24.5464 98.3253 24.1349 99.4141 23.7231C100.39 23.3563 101.368 22.9936 102.344 22.6276C102.441 22.5919 102.535 22.5547 102.629 22.5171C102.858 22.4274 103.053 22.2978 103.199 22.1396C103.332 21.9953 103.463 21.8501 103.602 21.7086C105.195 20.0788 107.279 18.9288 109.823 18.227C110.448 18.0558 111.106 17.9606 111.772 17.945C112.219 17.9334 112.674 17.9803 113.093 18.1172C113.558 18.2684 113.54 18.5647 113.334 18.7819C113.171 18.9501 112.967 19.0946 112.733 19.2079C112.235 19.4563 111.743 19.713 111.227 19.9404C110.197 20.3957 109.15 20.8353 108.109 21.2788C107.439 21.5645 106.766 21.8439 106.094 22.1266C106.02 22.1577 105.948 22.1942 105.871 22.2218C105.527 22.3452 105.295 22.5462 105.131 22.7957C105.008 22.9808 104.879 23.1639 104.756 23.3489C104.221 24.1458 103.826 24.9902 103.582 25.8616C103.449 26.3447 103.359 26.8308 103.4 27.3268C103.427 27.6469 103.529 27.9534 103.675 28.2532C103.748 28.4031 103.861 28.5407 104.007 28.6581C104.117 28.7476 104.252 28.7855 104.412 28.7616C104.496 28.7482 104.578 28.7303 104.658 28.7083C105.185 28.5726 105.695 28.402 106.181 28.1984C106.999 27.8495 107.784 27.4586 108.528 27.0287C110.123 26.1137 111.621 25.1091 113.007 24.0238C113.509 23.6323 113.991 23.2265 114.5 22.84C114.798 22.6135 114.956 22.3502 115.039 22.0465C115.247 21.2845 115.463 20.5237 115.685 19.7642C116.231 17.8986 116.961 16.0759 117.995 14.3238C118.722 13.0984 119.565 11.9212 120.622 10.8332C121.465 9.96515 122.431 9.18071 123.556 8.50701C124.092 8.186 124.668 7.91023 125.306 7.71257C125.543 7.63898 125.789 7.58278 126.033 7.52206C126.511 7.40108 127.005 7.41537 127.499 7.43323C127.694 7.44253 127.881 7.49069 128.041 7.57254C128.132 7.61477 128.209 7.67106 128.268 7.73756C128.327 7.80407 128.366 7.87922 128.382 7.95786C128.439 8.22838 128.402 8.49677 128.335 8.76277C128.189 9.34265 127.936 9.89847 127.637 10.4436C127.251 11.1509 126.783 11.8298 126.285 12.4971C125.476 13.5818 124.575 14.6256 123.654 15.6596C122.567 16.8793 121.419 18.0674 120.25 19.2448C120.174 19.3217 120.098 19.3986 120.02 19.4741C119.792 19.6942 119.678 19.9433 119.623 20.2171C119.427 21.1899 119.214 22.1606 119.011 23.1327C118.818 24.0579 118.634 24.9838 118.444 25.9089C118.347 26.3793 118.242 26.8489 118.147 27.3197C118.136 27.379 118.157 27.4428 118.17 27.5038C118.18 27.5481 118.287 27.5731 118.329 27.5414C118.422 27.4764 118.509 27.4078 118.591 27.3359C119.192 26.7767 119.783 26.2114 120.39 25.656C121.807 24.3591 123.296 23.1085 124.856 21.9041C125.849 21.1342 126.865 20.3814 127.92 19.6577C128.549 19.226 129.21 18.8197 129.899 18.4406C130.244 18.2501 130.605 18.0803 131.026 17.9905C131.815 17.8217 132.595 17.846 133.364 18.052C133.833 18.1777 134.085 18.4413 134.162 18.7961C134.195 18.9531 134.21 19.1119 134.205 19.2708C134.195 19.6354 134.183 19.9992 134.103 20.3619C133.985 20.8939 133.898 21.4298 133.798 21.9641C133.746 22.2471 133.706 22.5314 133.642 22.8129C133.49 23.4866 133.405 24.1662 133.318 24.8447C133.237 25.4762 133.191 26.1109 133.163 26.7448C133.138 27.3316 133.15 27.9196 133.161 28.5071C133.166 28.7928 133.206 29.0767 133.23 29.3618C133.241 29.4885 133.259 29.6149 133.263 29.7428C133.283 30.362 133.401 30.9756 133.548 31.585C133.597 31.7868 133.64 31.9923 133.767 32.1804C133.792 32.2153 133.831 32.2439 133.878 32.2622C133.926 32.2806 133.979 32.2879 134.032 32.2833C134.096 32.2764 134.159 32.2665 134.221 32.2535C134.384 32.214 134.546 32.1718 134.707 32.1285C135.373 31.9496 136.022 31.7403 136.661 31.5136C137.977 31.0461 139.258 30.5291 140.514 29.9785C142.878 28.9422 145.171 27.8234 147.43 26.6662C150.89 24.8945 154.267 23.0398 157.627 21.1671C158.998 20.4029 160.364 19.633 161.734 18.8671C162.254 18.5763 162.388 18.5409 162.573 17.905C163.075 16.1823 163.68 14.4796 164.406 12.8012C165.002 11.4247 165.686 10.0725 166.505 8.7592C167.387 7.34297 168.419 5.98962 169.657 4.72556C170.722 3.63916 171.954 2.67088 173.389 1.8481C174.303 1.31908 175.301 0.875633 176.362 0.527846C177.19 0.260445 178.07 0.0899603 178.969 0.0225088C179.654 -0.0349285 180.348 0.0178747 181.003 0.177301C181.186 0.221735 181.364 0.277004 181.536 0.342571C182.151 0.582141 182.493 0.971264 182.596 1.47088C182.669 1.83311 182.656 2.2021 182.556 2.56086C182.459 2.90284 182.33 3.23932 182.169 3.56772C181.713 4.51362 181.087 5.39831 180.398 6.26086C179.173 7.7952 177.764 9.23382 176.259 10.6229C175.064 11.726 173.813 12.7935 172.508 13.8254C171.597 14.5439 170.666 15.2464 169.7 15.9234C168.61 16.6876 167.499 17.4359 166.354 18.1555C166.29 18.1967 166.225 18.2403 166.158 18.2789C165.798 18.4813 165.599 18.7514 165.516 19.0779C165.382 19.608 165.23 20.1357 165.097 20.6663C164.936 21.3214 164.775 21.9775 164.633 22.6352C164.511 23.1989 164.411 23.7654 164.307 24.3313C164.235 24.7242 164.17 25.1171 164.106 25.5115C164.085 25.6375 164.074 25.7642 164.058 25.8906C164.034 26.0802 164.008 26.2696 163.982 26.4588C163.976 26.5064 163.965 26.5541 163.962 26.6017C163.912 27.459 163.783 28.3106 163.792 29.1689C163.801 29.9626 163.799 30.7563 163.814 31.5503C163.819 31.836 163.86 32.1199 163.885 32.4047C163.888 32.4364 163.896 32.4678 163.897 32.5C163.911 32.9763 163.985 33.4499 164.061 33.9224C164.248 35.075 164.513 36.2148 165.079 37.304C165.111 37.3631 165.141 37.4231 165.177 37.4795C165.254 37.6048 165.426 37.6207 165.524 37.5079C165.617 37.4018 165.702 37.2918 165.779 37.1785C166.511 36.0831 167.184 34.9671 167.855 33.8505C168.875 32.153 169.963 30.4798 171.187 28.8567C173.061 26.3707 175.15 23.9893 177.562 21.7677C178.814 20.6153 180.141 19.5137 181.608 18.5078C182.396 17.9672 183.218 17.4583 184.127 17.0313C184.398 16.9025 184.678 16.7851 184.967 16.6798C185.615 16.4459 186.305 16.3481 187.028 16.365C187.414 16.374 187.801 16.3981 188.171 16.4859C188.483 16.5598 188.799 16.5736 189.124 16.5621C189.382 16.5563 189.64 16.5605 189.897 16.5748C190.155 16.5893 190.405 16.6446 190.632 16.7369C190.916 16.8474 191.004 17.0227 190.934 17.2092C190.842 17.4537 190.75 17.6983 190.654 17.9419C190.289 18.8707 189.917 19.7994 189.64 20.746C189.395 21.5836 189.177 22.4242 189.031 23.2751C188.907 23.9995 188.794 24.724 188.762 25.4546C188.757 25.5651 188.73 25.6753 188.721 25.7861C188.71 25.9601 188.691 26.1352 188.703 26.31C188.729 26.691 188.77 27.0699 188.809 27.4495C188.82 27.5597 188.824 27.6729 188.903 27.7724C188.923 27.7984 188.961 27.8372 188.988 27.8357C189.048 27.8329 189.106 27.8168 189.153 27.7896C189.201 27.7605 189.231 27.7145 189.263 27.6736C189.382 27.5231 189.499 27.3716 189.617 27.2211C190.068 26.6441 190.511 26.0635 190.973 25.491C192.583 23.4944 194.427 21.6241 196.541 19.9028C197.696 18.9624 198.901 18.0577 200.212 17.2337C200.457 17.0794 200.708 16.9298 200.961 16.7834C201.553 16.4412 202.149 16.103 202.742 15.762C203.18 15.5059 203.65 15.2808 204.145 15.0897C204.756 14.8559 205.419 14.7052 206.101 14.6449C206.756 14.5868 207.385 14.6449 208.007 14.772C208.233 14.8182 208.447 14.8971 208.659 14.9725C208.815 15.0278 208.939 15.1178 209.046 15.2207C209.277 15.4462 209.203 15.7336 208.874 15.8742C208.648 15.9694 208.408 16.0382 208.147 16.0518C207.932 16.0632 207.718 16.072 207.503 16.0728C207.113 16.0744 206.732 16.0351 206.371 15.9196C206.097 15.832 205.832 15.8534 205.559 15.932C205.035 16.0792 204.561 16.3094 204.17 16.6064C203.813 16.8803 203.46 17.1594 203.132 17.4523C202.404 18.1017 201.789 18.8081 201.256 19.5551C200.279 20.9261 199.593 22.3742 199.139 23.8845C198.964 24.4575 198.837 25.0382 198.76 25.6229C198.697 26.1199 198.792 26.6053 198.991 27.0789C199.072 27.2774 199.208 27.4612 199.391 27.6186C199.475 27.6901 199.57 27.7548 199.672 27.8117C199.875 27.9239 200.104 27.9482 200.344 27.8927C200.466 27.8624 200.586 27.8275 200.703 27.7881C201.533 27.525 202.319 27.1937 203.049 26.8005C203.639 26.483 204.208 26.1451 204.755 25.7868C206.108 24.9026 207.358 23.9421 208.548 22.9393C210.022 21.6974 211.373 20.3831 212.709 19.06C213.197 18.5766 213.675 18.0877 214.177 17.6121C214.508 17.2997 214.747 16.9391 214.877 16.5538C215.154 15.7548 215.45 14.9596 215.766 14.1683C216.843 11.4697 218.178 8.84326 219.837 6.30968C220.436 5.39522 221.057 4.48909 221.802 3.63368C222.046 3.35363 222.298 3.07715 222.563 2.80781C222.966 2.39405 223.438 2.01903 223.966 1.6914C224.162 1.56758 224.373 1.45771 224.596 1.36324C225.247 1.09819 225.947 1.07747 226.662 1.1713C226.704 1.17678 226.743 1.19274 226.785 1.20107C227.336 1.31252 227.562 1.6352 227.509 2.04076C227.432 2.6273 227.236 3.19574 226.976 3.75323C226.578 4.61054 226.1 5.44165 225.596 6.2661C223.939 8.97543 221.979 11.5628 219.836 14.0771C219.756 14.1724 219.68 14.2676 219.592 14.3574C219.273 14.6846 219.083 15.0499 218.956 15.441C218.514 16.7984 218.059 18.1532 217.608 19.5087C216.915 21.5884 216.222 23.6682 215.529 25.748C215.478 25.9013 215.449 26.0575 215.418 26.2147C215.415 26.2292 215.47 26.2533 215.502 26.2664C215.512 26.2681 215.523 26.2678 215.533 26.2656C215.543 26.2633 215.552 26.2593 215.559 26.2538C215.667 26.1364 215.781 26.0214 215.875 25.8982C216.414 25.1935 216.981 24.5009 217.574 23.8204C218.749 22.4716 220.005 21.1659 221.387 19.9276C222.249 19.1557 223.149 18.4092 224.159 17.7409C224.495 17.5192 224.849 17.3123 225.207 17.1099C225.676 16.8455 226.21 16.6893 226.793 16.6162C227.448 16.534 228.077 16.6122 228.689 16.776C229.288 16.9363 229.615 17.2761 229.733 17.7286C229.864 18.212 229.897 18.7071 229.832 19.1977C229.772 19.6237 229.7 20.0488 229.641 20.4746C229.561 21.0432 229.431 21.6062 229.298 22.1685C228.99 23.4654 228.662 24.7597 228.364 26.0578C228.171 26.9022 227.996 27.7486 227.854 28.5995C227.77 29.1024 227.682 29.6068 227.668 30.1162C227.658 30.4805 227.566 30.842 227.591 31.2085C227.625 31.7158 227.669 32.2226 227.822 32.7193C227.871 32.8737 227.933 33.0256 228.008 33.1739C228.045 33.2454 228.119 33.3082 228.181 33.3718C228.226 33.4175 228.347 33.4433 228.416 33.4194C228.554 33.3765 228.689 33.3282 228.82 33.2747C229.227 33.0969 229.617 32.899 229.987 32.6822C230.696 32.2687 231.367 31.8249 232.021 31.3648C232.814 30.8073 233.607 30.2486 234.382 29.6768C235.126 29.1277 235.847 28.5614 236.578 28.0024C236.623 27.9682 236.668 27.9339 236.707 27.8967C236.817 27.795 236.888 27.6824 236.887 27.5481C236.884 27.3892 236.887 27.2304 236.876 27.0718C236.839 26.5162 236.85 25.9593 236.91 25.4048C236.973 24.7873 237.109 24.1751 237.316 23.5752C237.689 22.4926 238.239 21.4626 239.043 20.5115C239.701 19.7279 240.526 19.0282 241.487 18.4396C241.918 18.1753 242.38 17.9436 242.893 17.7748C243.547 17.5604 244.226 17.4221 244.949 17.4414C245.358 17.4484 245.761 17.5152 246.135 17.6378C246.609 17.7967 246.85 18.0772 246.882 18.4606C246.914 18.844 246.82 19.2174 246.65 19.582C246.391 20.1393 246.048 20.6682 245.671 21.1857C244.332 23.0246 242.712 24.719 240.873 26.3012C240.579 26.5538 240.278 26.8013 239.981 27.0525C239.893 27.1221 239.811 27.1955 239.735 27.2723C239.598 27.4207 239.53 27.5859 239.559 27.7679C239.709 28.6847 239.936 29.5875 240.461 30.4351C240.686 30.798 240.965 31.1359 241.333 31.4293C241.449 31.5233 241.577 31.6076 241.717 31.6808C241.805 31.727 241.907 31.7569 242.014 31.768C242.121 31.7791 242.229 31.7711 242.331 31.7446C242.6 31.6813 242.846 31.5843 243.083 31.4772C243.54 31.2685 243.971 31.0294 244.369 30.7627C245.073 30.2968 245.732 29.7955 246.343 29.2625C247.274 28.4502 248.131 27.5969 248.963 26.7291C250.168 25.4727 251.292 24.1767 252.387 22.8665C253.514 21.517 254.64 20.1655 255.763 18.8119C255.991 18.543 256.184 18.2588 256.34 17.9631C256.594 17.4741 256.854 16.9871 257.12 16.5019C257.217 16.3261 257.335 16.1566 257.452 15.9875C257.641 15.7148 257.942 15.5639 258.35 15.4993C258.783 15.431 259.202 15.4357 259.62 15.5367C259.701 15.5571 259.78 15.583 259.854 15.6141C259.901 15.6332 259.941 15.6606 259.971 15.6938C260 15.727 260.019 15.765 260.024 15.8046C260.051 15.9494 260.014 16.0887 259.959 16.2268C259.798 16.6383 259.637 17.0503 259.475 17.4611C258.939 18.8 258.4 20.1381 257.929 21.4905C257.592 22.4583 257.271 23.4289 256.946 24.3989C256.915 24.507 256.894 24.6168 256.885 24.7273C256.883 24.7444 256.937 24.7683 256.97 24.7833C256.979 24.7854 256.99 24.7858 257 24.7844C257.01 24.783 257.02 24.7798 257.028 24.7752C257.1 24.7182 257.168 24.6576 257.229 24.5937C257.546 24.2348 257.853 23.8712 258.173 23.514C259.668 21.8459 261.321 20.2587 263.121 18.7645C264.049 17.9937 265.025 17.2563 266.047 16.5524C266.691 16.1082 267.364 15.6891 268.09 15.3181C268.389 15.1647 268.695 15.0161 269.012 14.883C269.7 14.5941 270.448 14.4725 271.237 14.4886C271.602 14.499 271.964 14.5435 272.314 14.621C273.066 14.7813 273.581 15.1366 273.841 15.6879C274.034 16.0921 274.152 16.5139 274.191 16.9417C274.233 17.4342 274.191 17.9257 274.184 18.4182C274.179 18.8307 274.167 19.2431 274.092 19.6535C274.063 19.8102 274.07 19.9704 274.054 20.1297C274.033 20.3353 274.006 20.5405 273.981 20.7458C273.967 20.8565 273.946 20.9668 273.939 21.0778C273.918 21.4264 273.883 21.7741 273.837 22.1218C273.789 22.4847 273.792 22.851 273.769 23.2156C273.759 23.3739 273.737 23.5318 273.726 23.6902C273.714 23.8331 273.703 23.976 273.701 24.1188C273.697 24.4046 273.694 24.6904 273.701 24.9761C273.706 25.1667 273.731 25.3557 273.743 25.5458C273.761 25.8151 273.772 26.0847 273.79 26.3555C273.849 27.2925 274.004 28.2201 274.315 29.1315C274.484 29.6256 274.733 30.0979 275.017 30.5603C275.189 30.8354 275.444 31.0775 275.763 31.2678C275.829 31.3083 275.898 31.3462 275.969 31.3812C276.198 31.4924 276.439 31.5241 276.705 31.4588C277.133 31.3533 277.557 31.2426 277.963 31.0964C278.522 30.8934 279.059 30.6578 279.567 30.392C280.711 29.7983 281.78 29.1348 282.812 28.4392C283.811 27.7657 284.776 27.0658 285.749 26.3702C286.751 25.6529 287.771 24.9488 288.796 24.2508C290.312 23.218 291.865 22.2163 293.439 21.2328C295.769 19.778 298.162 18.383 300.588 17.016C301.936 16.2557 303.268 15.4791 304.606 14.7087C304.741 14.6308 304.867 14.5441 304.997 14.4615L305 15.8846ZM180.369 1.72451C180.369 1.7407 180.366 1.64568 180.356 1.5509C180.335 1.3604 180.259 1.17545 180.133 1.00841C179.989 0.811234 179.77 0.702165 179.46 0.698831C179.224 0.697272 178.988 0.722409 178.763 0.773369C178.161 0.905538 177.607 1.11082 177.076 1.3542C175.862 1.91049 174.805 2.60277 173.868 3.3965C172.705 4.38169 171.749 5.4719 170.911 6.62021C170.022 7.83736 169.306 9.11094 168.678 10.4129C167.994 11.8336 167.429 13.2808 166.906 14.7375C166.829 14.9518 166.753 15.1662 166.684 15.3829C166.67 15.4449 166.663 15.5078 166.664 15.5708C166.661 15.6122 166.754 15.6565 166.8 15.6422C167.003 15.5781 167.148 15.4598 167.304 15.3514C168.803 14.3065 170.262 13.232 171.651 12.1058C173.649 10.4888 175.499 8.77497 177.189 6.97576C177.985 6.12853 178.697 5.23913 179.317 4.31477C179.65 3.81681 179.949 3.30743 180.154 2.77114C180.272 2.46513 180.371 2.15673 180.369 1.72451ZM127.152 8.34007C127.148 8.31626 127.136 8.22291 127.118 8.12979C127.107 8.07645 126.982 8.02596 126.914 8.04359C126.874 8.05383 126.827 8.05597 126.794 8.07335C126.325 8.32459 125.86 8.58202 125.465 8.89518C124.935 9.30952 124.45 9.75424 124.014 10.2252C123.352 10.9494 122.812 11.7222 122.334 12.5199C121.472 13.96 120.9 15.4674 120.434 16.9994C120.418 17.0614 120.415 17.1248 120.425 17.1875C120.429 17.2018 120.437 17.2152 120.45 17.2266C120.462 17.238 120.478 17.247 120.496 17.253C120.516 17.2561 120.537 17.2559 120.558 17.2522C120.578 17.2485 120.597 17.2416 120.613 17.2318C120.703 17.1648 120.787 17.0932 120.864 17.0175C121.855 16.0225 122.839 15.0242 123.75 13.9876C124.602 13.0172 125.397 12.0222 126.075 10.9782C126.354 10.5495 126.624 10.119 126.819 9.66485C126.994 9.25715 127.144 8.84446 127.152 8.34007ZM244.898 18.5828C244.885 18.537 244.859 18.4285 244.822 18.3208C244.795 18.2439 244.657 18.1922 244.567 18.2203C244.488 18.2434 244.41 18.27 244.335 18.3001C243.904 18.4849 243.538 18.7326 243.194 18.9921C242.488 19.5262 241.885 20.1289 241.4 20.7837C240.476 22.022 239.951 23.3542 239.678 24.7461C239.653 24.9033 239.64 25.0615 239.639 25.2198C239.639 25.2417 239.685 25.2753 239.718 25.2843C239.738 25.2884 239.758 25.2892 239.778 25.2866C239.798 25.2841 239.817 25.2784 239.833 25.2698C239.914 25.2178 239.988 25.1605 240.054 25.0986C240.654 24.5199 241.266 23.9469 241.848 23.3585C242.608 22.5898 243.281 21.7764 243.861 20.9263C244.161 20.4874 244.451 20.0452 244.658 19.5765C244.793 19.2755 244.901 18.9693 244.898 18.5828ZM187.232 17.6416C187.214 17.6076 187.206 17.5738 187.181 17.5502C187.001 17.3811 186.738 17.3359 186.498 17.444C186.314 17.5252 186.137 17.6144 185.967 17.7109C185.287 18.0995 184.708 18.5773 184.261 19.1205C183.971 19.472 183.694 19.8302 183.436 20.195C182.641 21.3231 182.029 22.505 181.571 23.7309C181.445 24.0667 181.334 24.4056 181.219 24.7435C181.193 24.8042 181.199 24.87 181.236 24.9276C181.259 24.9597 181.303 24.9781 181.342 24.9545C181.425 24.9071 181.501 24.8518 181.565 24.7899C181.823 24.5177 182.075 24.2422 182.327 23.966C183.64 22.5371 184.887 21.0759 186.093 19.5963C186.25 19.4071 186.389 19.2104 186.51 19.0074C186.748 18.6002 186.966 18.1867 187.19 17.775C187.209 17.7315 187.223 17.6869 187.232 17.6416ZM92.0183 28.6335C92.0183 28.4792 92.038 28.2889 91.9697 28.1022C91.9485 28.0441 91.8303 28.0096 91.7607 28.0434C91.7414 28.0498 91.7226 28.0569 91.7044 28.0648C91.0763 28.45 90.5633 28.9275 90.1977 29.467C90.0669 29.6667 89.9725 29.8784 89.917 30.0964C89.8727 30.2519 89.871 30.4124 89.9121 30.5684C89.9849 30.8342 90.1053 31.0873 90.3217 31.31C90.3614 31.3472 90.4044 31.3824 90.4505 31.4153C90.493 31.4484 90.6437 31.4536 90.693 31.4236C90.7439 31.3951 90.7918 31.3637 90.8363 31.3298C91.1228 31.0892 91.3244 30.8106 91.4851 30.5156C91.8159 29.9174 91.9966 29.2796 92.0183 28.6335ZM40.3371 19.0981C40.3226 19.0276 40.3031 18.9578 40.2788 18.8888C40.2692 18.865 40.2205 18.8412 40.1822 18.8333C40.1416 18.8293 40.1002 18.833 40.0621 18.8442C40.0444 18.8481 40.0299 18.865 40.018 18.8781C39.6194 19.3096 39.4384 19.794 39.3959 20.3093C39.3796 20.5321 39.4234 20.7552 39.5247 20.9654C39.5707 21.0538 39.6353 21.1363 39.716 21.2099C39.7482 21.2402 39.8248 21.253 39.8828 21.2559C39.9098 21.2559 39.9568 21.2192 39.9668 21.1933C40.0099 21.0876 40.0433 20.9799 40.0666 20.8708C40.0956 20.7137 40.1014 20.5543 40.1275 20.3969C40.1867 20.0347 40.2531 19.6732 40.3146 19.3112C40.3287 19.2484 40.3303 19.1848 40.3384 19.0981H40.3371ZM222.342 7.78211C222.339 7.80323 222.339 7.82457 222.342 7.84569C222.348 7.86054 222.361 7.87332 222.379 7.88165C222.388 7.8843 222.398 7.88538 222.407 7.8848C222.417 7.88422 222.427 7.882 222.435 7.87832C222.627 7.7652 222.703 7.5954 222.809 7.44299C223.438 6.54211 223.986 5.61407 224.493 4.6727C224.58 4.511 224.658 4.34644 224.733 4.18165C224.765 4.10621 224.79 4.02948 224.81 3.95184C224.813 3.94464 224.814 3.9369 224.813 3.92929C224.812 3.92168 224.808 3.91442 224.802 3.90813C224.796 3.90183 224.788 3.8967 224.779 3.89316C224.77 3.88962 224.76 3.88777 224.749 3.88778C224.739 3.88711 224.728 3.88815 224.719 3.89083C224.709 3.89351 224.7 3.89775 224.693 3.90326C224.615 3.99661 224.532 4.08853 224.467 4.18689C223.791 5.21089 223.177 6.25634 222.587 7.30892C222.497 7.46967 222.419 7.63398 222.342 7.78211ZM110.16 19.1457C110.119 19.1505 110.078 19.1585 110.038 19.1695C109.583 19.3439 109.144 19.5389 108.743 19.7766C108.712 19.7969 108.686 19.8211 108.666 19.848C108.663 19.8547 108.662 19.8617 108.664 19.8686C108.666 19.8755 108.669 19.882 108.675 19.8875C108.686 19.8978 108.713 19.9099 108.725 19.9064C109.068 19.8066 110.007 19.3632 110.223 19.1988C110.231 19.1934 110.223 19.1695 110.213 19.161C110.203 19.1524 110.178 19.1512 110.16 19.1457Z" fill="#D7569C"/>
</svg>
